<?xml version="1.0" encoding="UTF-8" standalone="no"?>
<!DOCTYPE svg PUBLIC "-//W3C//DTD SVG 20010904//EN" "http://www.w3.org/TR/2001/REC-SVG-20010904/DTD/svg10.dtd">
<svg version="1.0" xmlns="http://www.w3.org/2000/svg" width="1280.000000pt" height="1201.000000pt" viewBox="0 0 1280.000000 1201.000000" preserveAspectRatio="xMidYMid meet">
<metadata>
Created by potrace 1.15, written by Peter Selinger 2001-2017
</metadata>
<g transform="translate(0.000000,1201.000000) scale(0.100000,-0.100000)" fill="#000000" stroke="none">
<path d="M6550 11994 c-531 -85 -889 -483 -1048 -1164 -75 -321 -96 -533 -96 -1003 -1 -319 -3 -385 -14 -370 -7 10 -61 96 -120 191 -223 359 -402 594 -611 802 -75 74 -172 160 -216 192 -334 236 -638 238 -890 5 -139 -128 -232 -276 -277 -442 -30 -114 -31 -340 0 -475 68 -307 229 -620 511 -995 323 -430 857 -969 1425 -1440 l108 -89 -89 -29 c-89 -28 -261 -108 -320 -147 l-32 -21 -46 97 c-66 142 -165 284 -280 403 -140 145 -233 202 -385 234 -54 12 -60 17 -241 202 -177 181 -188 195 -232 285 -49 103 -75 196 -107 390 -11 69 -30 159 -41 200 -55 203 -168 304 -355 317 -304 22 -1135 -325 -1658 -692 -100 -69 -107 -72 -177 -79 -288 -29 -553 -112 -735 -232 -83 -55 -209 -178 -199 -195 9 -13 0 -11 -43 7 -61 27 -158 23 -225 -9 -100 -50 -150 -131 -151 -247 -1 -63 4 -84 27 -133 83 -168 302 -205 438 -72 57 55 83 117 83 200 0 71 -26 148 -60 176 -24 19 -16 33 49 95 104 100 213 164 381 223 80 28 308 81 351 81 12 0 0 -19 -39 -62 -31 -34 -56 -71 -56 -83 0 -16 -10 -23 -44 -33 -58 -15 -124 -67 -160 -125 -42 -68 -49 -179 -16 -255 42 -96 154 -172 255 -172 109 0 225 85 260 189 50 151 -35 320 -180 361 l-46 13 28 30 c15 16 62 57 103 91 l74 61 106 5 c158 8 342 -5 440 -30 354 -91 657 -270 1038 -613 116 -103 292 -295 292 -317 0 -4 -22 -53 -48 -108 l-49 -101 -93 -61 c-51 -34 -96 -58 -99 -53 -4 4 -23 29 -43 54 -93 117 -223 218 -347 270 -98 41 -242 52 -336 24 -207 -60 -375 -224 -501 -490 -194 -411 -233 -1026 -98 -1560 131 -520 386 -885 706 -1009 29 -11 43 -26 64 -68 222 -442 704 -913 1266 -1237 301 -173 567 -256 818 -255 164 0 235 16 375 84 125 61 227 146 317 265 68 90 176 286 199 364 l12 42 81 -8 c126 -13 303 -7 401 12 99 20 263 73 336 111 27 13 50 20 52 16 2 -4 17 -45 32 -92 53 -163 177 -466 237 -580 85 -160 244 -426 287 -480 113 -141 333 -360 362 -360 16 0 10 64 -9 101 -10 20 -50 73 -89 120 -137 163 -378 570 -578 976 -79 160 -149 308 -157 328 -12 35 -11 39 6 49 97 57 302 237 377 332 l25 31 144 -48 c242 -79 438 -110 693 -111 l157 0 0 -31 c0 -43 47 -170 183 -502 230 -560 282 -663 477 -956 65 -96 132 -207 150 -245 18 -38 34 -71 36 -73 10 -11 64 56 70 85 7 38 -1 55 -76 154 -147 193 -285 465 -506 995 -58 138 -135 304 -172 370 -70 125 -102 189 -102 205 0 6 17 10 38 10 112 0 442 73 653 144 l129 44 6 -27 c3 -14 10 -46 15 -70 9 -39 157 -412 297 -746 85 -203 216 -446 342 -635 67 -101 138 -217 157 -257 31 -63 37 -71 54 -63 31 17 49 52 49 96 0 35 -8 52 -53 107 -150 189 -300 482 -537 1047 -54 129 -129 290 -168 357 -63 112 -109 211 -101 217 2 1 52 24 111 50 135 61 325 169 447 253 673 469 977 1112 820 1738 -60 240 -182 474 -358 689 -32 39 -114 125 -182 191 -412 400 -974 673 -1566 761 -137 21 -471 24 -603 5 -338 -46 -687 -177 -953 -355 -53 -36 -99 -66 -101 -66 -3 0 -9 15 -15 33 -10 30 -5 46 60 192 177 399 442 1064 559 1400 318 921 460 1558 460 2069 0 527 -165 828 -506 921 -87 23 -279 28 -394 9z m382 -154 c179 -55 294 -200 350 -440 26 -112 35 -392 19 -567 -63 -678 -340 -1611 -819 -2758 -117 -282 -194 -457 -197 -453 -1 2 -34 77 -73 168 -147 346 -282 638 -463 1000 l-187 375 -11 185 c-22 375 -10 855 29 1130 115 820 437 1276 965 1369 103 18 117 19 220 16 64 -3 124 -11 167 -25z m-2860 -1171 c145 -31 301 -133 489 -319 149 -149 250 -269 385 -462 199 -285 474 -746 480 -808 2 -19 13 -123 25 -230 47 -442 150 -1051 250 -1469 16 -68 29 -127 29 -132 0 -5 -53 -9 -117 -9 l-118 1 -190 160 c-661 559 -1154 1065 -1477 1517 -360 506 -498 934 -407 1264 61 219 245 425 433 484 52 16 149 17 218 3z m-807 -1769 c83 -29 139 -64 178 -113 62 -76 82 -130 157 -417 49 -191 96 -277 246 -455 l127 -150 -72 -12 c-221 -37 -391 -139 -481 -287 l-33 -55 -166 159 c-360 343 -585 511 -866 646 -232 112 -432 164 -627 164 l-113 0 70 42 c125 73 436 222 595 285 463 182 816 251 985 193z m2352 -182 c-3 -8 -6 -5 -6 6 -1 11 2 17 5 13 3 -3 4 -12 1 -19z"/>
<path d="M6845 3950 c-10 -16 -7 -120 4 -172 6 -25 47 -135 92 -244 45 -110 117 -287 161 -394 124 -304 235 -518 383 -740 72 -107 145 -227 164 -265 19 -39 36 -72 38 -74 7 -9 53 44 63 74 14 43 5 63 -72 165 -139 185 -299 500 -493 965 -72 172 -145 330 -191 410 -70 124 -114 226 -114 267 0 19 -25 25 -35 8z"/>
<path d="M8307 3898 c-33 -36 -33 -39 25 -208 121 -351 206 -535 394 -851 84 -139 127 -200 208 -290 109 -121 232 -241 266 -259 18 -10 20 -8 20 27 0 49 -20 85 -99 180 -72 85 -192 270 -337 516 -108 183 -384 737 -419 840 -12 37 -24 69 -26 71 -2 2 -17 -10 -32 -26z"/>
<path d="M7425 3700 c-24 -25 -27 -34 -22 -67 15 -91 164 -486 247 -654 58 -117 177 -326 258 -454 103 -161 402 -467 423 -433 10 15 2 62 -17 99 -7 14 -43 61 -80 105 -74 86 -109 139 -254 379 -134 221 -273 473 -309 560 -17 40 -62 134 -100 209 -39 75 -81 170 -94 211 l-23 75 -29 -30z"/>
</g>
</svg>