<?xml version="1.0" encoding="utf-8"?>
<!-- Generator: Adobe Illustrator 27.5.0, SVG Export Plug-In . SVG Version: 6.00 Build 0)  -->
<svg version="1.1" id="Layer_1" xmlns="http://www.w3.org/2000/svg" xmlns:xlink="http://www.w3.org/1999/xlink" x="0px" y="0px"
	 viewBox="0 0 450 450" style="enable-background:new 0 0 450 450;" xml:space="preserve">
<g>
	<g>
		<path style="fill:#281400;" d="M268.141,285.594c-3.407-4.836-12.632-4.379-12.728-4.375l-0.039-0.699
			c0.396-0.022,9.708-0.484,13.339,4.672L268.141,285.594z"/>
	</g>
	<g>
		<path style="fill:#281400;" d="M285.124,292.813l-8.414,5.84l0.166-0.5l1.795,7.246l0.027,0.111l-0.079,0.061l-3.251,2.574
			l3.034-2.826l-0.051,0.172l-2.368-7.08l-0.097-0.283l0.262-0.217l7.92-6.494c0.374-0.307,0.927-0.254,1.233,0.121
			c0.307,0.373,0.252,0.926-0.122,1.232C285.162,292.783,285.142,292.799,285.124,292.813z"/>
	</g>
	<g>
		<path style="fill:#4E2B00;" d="M308.771,304.713c-0.945,5.699-4.32,9.08-5.209,8.592c-0.371-1.064-1.351-2.508-2.653-4.209
			c-0.406-0.533-0.847-1.086-1.315-1.658c-0.301-0.373-0.609-0.756-0.932-1.148c-0.489-0.59-0.993-1.205-1.513-1.828
			c-0.727-0.875-1.47-1.777-2.219-2.703c-0.728-0.895-1.449-1.813-2.156-2.729c-0.209-0.273-0.42-0.553-0.63-0.826
			c-1.31-1.758-2.534-3.529-3.508-5.236c-1.141-2.01-1.961-3.935-2.226-5.672V284.6c1.561-0.994,4.179-1.701,7.092-1.604
			c1.547,0.049,3.178,0.322,4.781,0.897c0.638,0.225,1.267,0.504,1.891,0.832c1.357,0.707,2.653,1.674,3.822,2.936
			c0.16,0.166,0.314,0.342,0.469,0.523c0.197,0.225,0.386,0.463,0.561,0.707c0.119,0.147,0.23,0.301,0.343,0.463
			c0.028,0.049,0.064,0.098,0.105,0.147c0.14,0.225,0.286,0.449,0.433,0.685c0.147,0.246,0.294,0.498,0.435,0.756
			c0.357,0.645,0.68,1.332,0.975,2.074c0.055,0.133,0.103,0.273,0.16,0.412c0.028,0.078,0.056,0.146,0.083,0.225
			c0.071,0.203,0.148,0.412,0.218,0.629c0.119,0.371,0.238,0.758,0.343,1.148c0.035,0.127,0.071,0.252,0.099,0.379
			c0.153,0.58,0.286,1.182,0.398,1.813c0.035,0.162,0.064,0.322,0.091,0.49c0.036,0.219,0.07,0.441,0.105,0.666
			C309.136,300.945,309.072,302.941,308.771,304.713z"/>
	</g>
	<g>
		<path style="fill:#351C00;" d="M275.023,283.33c-2.372,3.127,0.332,14.391,8.882,12.824c7.643-1.4,6.924-6.547,7.116-9.51
			c0.194-2.977-0.641-11.435-10.501-7.178C278.197,280.473,276.038,281.992,275.023,283.33z"/>
	</g>
	<g>
		<path style="fill:#281400;" d="M286.189,293.342l-6.342,8.043l0.013-0.525l3.833,6.406l0.06,0.096l-0.058,0.082l-2.357,3.412
			l2.077-3.59l0.001,0.18l-4.333-6.078l-0.175-0.246l0.188-0.281l5.677-8.525c0.268-0.402,0.812-0.512,1.214-0.244
			c0.402,0.268,0.512,0.813,0.244,1.215C286.217,293.305,286.202,293.324,286.189,293.342z"/>
	</g>
	<g>
		<g>
			<path style="fill:#FFAA00;" d="M308.814,298.777c-0.233-1.596-0.577-3.033-1-4.344c-0.251,0.98-0.592,1.975-1.029,2.971
				c-2.052,4.69-5.564,7.895-8.645,8.254c1.009,1.223,1.954,2.377,2.77,3.438c2.48,0.498,5.489-1.246,7.862-4.383
				C309.072,302.941,309.136,300.945,308.814,298.777z"/>
		</g>
	</g>
	<g>
		<g>
			<polygon points="291.738,297.931 291.734,297.617 291.474,297.803 291.298,297.561 291.792,297.202 291.972,297.447 
				291.738,297.614 			"/>
		</g>
		<g>
			<path style="fill:#FFAA00;" d="M300.175,284.725c-0.621-0.328-1.253-0.598-1.891-0.826c0.195,2.352-0.295,5.17-1.526,7.969
				c-1.175,2.678-2.831,4.873-4.606,6.33c0.207,0.277,0.412,0.555,0.623,0.832c0.707,0.916,1.429,1.834,2.156,2.729
				c0.714-0.23,1.443-0.594,2.156-1.092c2.065-1.414,4.025-3.842,5.369-6.902c0.778-1.779,1.261-3.557,1.457-5.223v-0.008
				c0.041-0.293,0.07-0.588,0.084-0.873C302.828,286.398,301.532,285.432,300.175,284.725z"/>
		</g>
	</g>
	<g style="opacity:0.8;">
		<path style="fill:#E6E6DC;" d="M282.624,283.898c3.078-0.76,5.962-2.611,8.454-4.5c2.167-1.643,4.298-3.367,6.071-5.443
			c1.696-1.98,2.8-4.289,4.032-6.566c1.291-2.385,3.112-5.695,5.882-6.58c0.708-0.225,1.74-0.271,2.449-0.01
			c2.391,0.881,2.825,4.723,2.513,6.885C310.402,278.885,290.927,288.861,282.624,283.898z"/>
	</g>
	<g style="opacity:0.8;">
		<path style="fill:#E6E6DC;" d="M289.614,280.457c0.501-0.348,0.99-0.701,1.464-1.059c1.625-1.232,3.229-2.51,4.68-3.947
			c2.815-4.295,4.425-9.098,3.615-13.246c-0.416-2.145-2.094-5.629-4.641-5.672c-0.757-0.014-1.715,0.371-2.309,0.818
			c-2.323,1.748-2.951,5.475-3.384,8.15c-0.412,2.557-0.693,5.1-1.641,7.529c-0.724,1.859-1.69,3.603-2.745,5.293
			C287.124,278.119,288.666,279.082,289.614,280.457z"/>
	</g>
	<g>
		<path style="fill:#281400;" d="M256.54,280.063c0.443,0.633,0.293,1.506-0.34,1.951c-0.632,0.445-1.505,0.295-1.951-0.34
			c-0.444-0.631-0.294-1.504,0.339-1.949C255.22,279.279,256.093,279.432,256.54,280.063z"/>
	</g>
	<g>
		<path style="fill:#412300;" d="M271.857,281.102c-4.714,0-8.182,5.041-6.868,10.188l-0.005-0.002
			c0.477,1.111,2.279,5.561,2.177,6.791c1.967,0.412,5.848-0.67,7.798-1.785l-0.006-0.004
			C281.772,292.613,279.422,281.102,271.857,281.102z"/>
	</g>
	<g>
		<path style="fill:#281400;" d="M293.936,293.734l-4.64,10.584l-0.029-0.404l4.272,8.035l0.039,0.072l-0.035,0.064l-1.938,3.611
			l1.679-3.738l0.005,0.135l-4.83-7.715l-0.11-0.178l0.081-0.229l3.88-10.883c0.161-0.457,0.663-0.693,1.119-0.531
			c0.455,0.162,0.692,0.664,0.53,1.119C293.952,293.695,293.943,293.717,293.936,293.734z"/>
	</g>
	<g>
		<path style="fill:#281400;" d="M298.136,297.877l-1.691,12.267l-0.113-0.355l6.008,7.324l0.061,0.076l-0.034,0.08l-1.776,4.264
			l1.491-4.373l0.028,0.154l-6.479-6.91l-0.129-0.139l0.016-0.217l0.877-12.353c0.034-0.482,0.453-0.844,0.935-0.811
			c0.483,0.033,0.848,0.453,0.813,0.936C298.14,297.838,298.139,297.859,298.136,297.877z"/>
	</g>
	<g>
		<path style="fill:#281400;" d="M270.486,290.23c0,1.533-0.861,2.773-1.926,2.773c-1.063,0-1.925-1.24-1.925-2.773
			c0-1.529,0.861-2.77,1.925-2.77C269.625,287.461,270.486,288.701,270.486,290.23z"/>
	</g>
	<g>
		<path style="fill:#281400;" d="M268.908,284.268c0.002,0.058-0.02,0.112-0.06,0.153c-0.04,0.04-0.094,0.064-0.15,0.064h-0.247
			c-0.133,0-0.241-0.104-0.245-0.236c-0.203-5.821-7.813-10.631-7.89-10.679l0.37-0.595
			C261.018,273.181,268.731,278.059,268.908,284.268z"/>
	</g>
	<g>
		<path style="fill:#281400;" d="M261.909,273.283c0,0.773-0.626,1.4-1.399,1.4c-0.772,0-1.4-0.627-1.4-1.4s0.628-1.4,1.4-1.4
			C261.283,271.883,261.909,272.51,261.909,273.283z"/>
	</g>
</g>
<g>
	<g>
		<path style="fill:#6C4000;" d="M387.422,270.76h20.727c0,5.42,7.616,11.352,7.616,23.949c0,14.867-8.737,19.846-15.38,19.846
			c-6.643,0-12.963,0-12.963,0h-0.002c0,0-6.32,0-12.963,0c-6.643,0-15.379-4.978-15.379-19.846c0-12.598,7.616-18.529,7.616-23.949
			h20.726H387.422z"/>
	</g>
	<g>
		<path style="fill:#7E4E00;" d="M387.422,314.555c0,0,6.32,0,12.963,0c6.642,0,15.38-4.978,15.38-19.846
			c0-12.598-7.616-18.529-7.616-23.949h-20.727h-0.002v43.795H387.422z"/>
	</g>
	<g>
		<path style="fill:#FFCD00;" d="M414.297,266.221c0,2.507-2.033,4.54-4.54,4.54h-44.674c-2.507,0-4.54-2.033-4.54-4.54
			c0-2.589,2.099-4.688,4.688-4.688h44.379C412.198,261.533,414.297,263.632,414.297,266.221z"/>
	</g>
	<g>
		<g>
			<path style="fill:#FFBE00;" d="M415.941,282.014c-1.337,0.818-2.68-1.525-4.026,0.617c-1.346,2.193-2.696-2.453-4.05,0.521
				c-1.354-1.709-2.71-0.455-4.069,0.428c-1.359,1.498-2.721-0.436-4.085,0.33c-1.364-0.889-2.73-0.643-4.098,0.238
				c-1.366-0.762-2.735-0.395-4.103,0.141c-1.369,1.307-2.739-2.316-4.108,0.047c-1.37-1.857-2.738,2.801-4.108-0.047
				c-1.366,1.146-2.735,0.232-4.102-0.143c-1.365,1.31-2.73-1.1-4.092-0.238c-1.363-3.115-2.723-0.65-4.081-0.332
				c-1.357-0.143-2.711,0.055-4.061-0.426c-1.351-0.094-2.698,1.486-4.041-0.521c-1.343-0.402-2.681,0.367-4.016-0.615
				c0.53-0.979,1.082-1.943,1.634-2.895c1.652-2.857,3.289-5.615,4.259-8.434c5.386,0.004,35.925,0.004,45.251,0
				c0.979,2.844,2.639,5.635,4.283,8.471C414.876,280.102,415.422,281.055,415.941,282.014z"/>
		</g>
	</g>
	<g>
		<path style="fill:#5A3200;" d="M407.486,315.361c0,0.647-0.524,1.172-1.172,1.172h-37.807c-0.647,0-1.172-0.524-1.172-1.172
			v-0.806c0-0.647,0.525-1.172,1.172-1.172h37.807c0.647,0,1.172,0.524,1.172,1.172V315.361z"/>
	</g>
</g>
<g>
	<g>
		<path style="fill:#281400;" d="M64.357,43.575h-0.7c0-5.923-7.809-10.857-7.888-10.906l0.371-0.594
			C56.477,32.284,64.357,37.268,64.357,43.575z"/>
	</g>
	<g>
		<path style="fill:#281400;" d="M69.376,43.575h-0.7c0-6.307,7.881-11.291,8.216-11.5l0.371,0.594
			C77.184,32.718,69.376,37.658,69.376,43.575z"/>
	</g>
	<g>
		<path style="fill:#281400;" d="M57.286,54.813l-6.049-6.021l-0.17-0.169l0.005-0.197l0.239-8.232l0.029,0.087l-2.27-3.357
			l2.515,3.178l0.026,0.034l0.003,0.054l0.472,8.222l-0.165-0.367l6.545,5.477c0.371,0.311,0.419,0.863,0.109,1.234
			c-0.311,0.371-0.863,0.42-1.234,0.11C57.322,54.849,57.303,54.831,57.286,54.813z"/>
	</g>
	<g>
		<path style="fill:#281400;" d="M60.13,68.628l-7.929,3.722l0.297-0.343l-4.34,11.719l-0.037,0.099l-0.088,0.029l-6.196,2.024
			l6.056-2.411l-0.124,0.128l3.593-11.969l0.065-0.217l0.232-0.127l7.678-4.213c0.424-0.232,0.957-0.078,1.19,0.346
			c0.232,0.424,0.077,0.956-0.347,1.189C60.164,68.612,60.146,68.621,60.13,68.628z"/>
	</g>
	<g>
		<path style="fill:#281400;" d="M58.229,73.986l-3.578,2.976l0.24-0.509l-1.147,15.909l-0.006,0.083l-0.054,0.046l-4.148,3.482
			l3.905-3.753l-0.06,0.128l0.074-15.95l0.001-0.281l0.239-0.228l3.369-3.21c0.351-0.334,0.905-0.32,1.239,0.03
			c0.333,0.35,0.319,0.905-0.031,1.238C58.26,73.96,58.244,73.975,58.229,73.986z"/>
	</g>
	<g>
		<path style="fill:#281400;" d="M74.568,53.521l6.544-5.477l-0.165,0.367l0.472-8.222l0.003-0.054l0.026-0.034l2.514-3.178
			l-2.27,3.357l0.029-0.087l0.239,8.232l0.005,0.197l-0.17,0.169l-6.048,6.021c-0.343,0.341-0.898,0.34-1.24-0.002
			c-0.34-0.343-0.339-0.898,0.003-1.239C74.529,53.554,74.549,53.537,74.568,53.521z"/>
	</g>
	<g>
		<path style="fill:#281400;" d="M73.696,67.068l7.679,4.213l0.232,0.127l0.065,0.217l3.594,11.969l-0.125-0.128l6.056,2.411
			l-6.197-2.024l-0.087-0.029l-0.038-0.099l-4.34-11.719l0.297,0.343l-7.929-3.722c-0.438-0.205-0.627-0.727-0.421-1.164
			c0.206-0.438,0.728-0.626,1.165-0.42C73.663,67.05,73.681,67.06,73.696,67.068z"/>
	</g>
	<g>
		<path style="fill:#281400;" d="M75.967,72.679l3.371,3.21l0.239,0.228l0.001,0.281l0.074,15.95l-0.061-0.128l3.904,3.753
			l-4.147-3.482l-0.054-0.046l-0.006-0.083l-1.146-15.909l0.241,0.509l-3.578-2.976c-0.373-0.309-0.423-0.861-0.114-1.233
			c0.31-0.372,0.862-0.422,1.233-0.114C75.939,72.652,75.954,72.665,75.967,72.679z"/>
	</g>
	<g>
		<path style="fill:#4E2B00;" d="M76.086,75.139c0,1.449-0.196,2.885-0.539,4.271c-0.566,2.331-1.541,4.538-2.646,6.47
			c-2.507,4.397-5.7,7.408-6.386,7.408c-0.687,0-3.873-3.011-6.379-7.408c-1.106-1.932-2.079-4.138-2.646-6.47
			c-0.343-1.386-0.54-2.822-0.54-4.271c0-0.224,0-0.449,0.014-0.672c0.07-2.528,0.56-4.678,1.316-6.47
			c1.911-4.587,5.531-6.799,8.234-6.799c2.702,0,6.33,2.212,8.241,6.799c0.756,1.792,1.247,3.942,1.317,6.47
			C76.086,74.69,76.086,74.915,76.086,75.139z"/>
	</g>
	<g>
		<path style="fill:#5A3200;" d="M72.9,85.88c1.105-1.932,2.08-4.138,2.646-6.47c0.344-1.386,0.539-2.822,0.539-4.271
			c0-0.224,0-0.449-0.014-0.672c-0.07-2.528-0.561-4.678-1.317-6.47c-1.911-4.587-5.539-6.799-8.241-6.799v32.089
			C67.201,93.288,70.394,90.277,72.9,85.88z"/>
	</g>
	<g>
		<path style="fill:#FFAA00;" d="M76.072,74.467H56.964c0.07-2.528,0.56-4.678,1.316-6.47h16.475
			C75.512,69.789,76.002,71.939,76.072,74.467z"/>
	</g>
	<g>
		<path style="fill:#FFAA00;" d="M75.546,79.41c-0.566,2.331-1.541,4.538-2.646,6.47H60.136c-1.106-1.932-2.079-4.138-2.646-6.47
			H75.546z"/>
	</g>
	<g>
		<path style="fill:#351C00;" d="M66.517,52.969c6.71,0,7.761-3.559,7.761-4.667c0-2.275-3.88-6.827-7.761-6.827
			c-3.88,0-7.76,4.551-7.76,6.827C58.756,49.41,59.807,52.969,66.517,52.969z"/>
	</g>
	<g>
		<path style="fill:#4E2B00;" d="M65.029,45.851c0,1.321-1.072,2.392-2.393,2.392c-1.321,0-2.393-1.071-2.393-2.392
			c0-1.322,1.071-2.393,2.393-2.393C63.958,43.458,65.029,44.529,65.029,45.851z"/>
	</g>
	<g>
		<path style="fill:#351C00;" d="M66.517,70.182c4.551,0,9.569-6.302,9.569-12.195c0-5.893-4.959-7.644-9.569-7.644
			c-4.609,0-9.569,1.751-9.569,7.644C56.947,63.88,61.965,70.182,66.517,70.182z"/>
	</g>
	<g>
		<path style="fill:#4E2B00;" d="M68.004,45.851c0,1.321,1.072,2.392,2.393,2.392c1.321,0,2.393-1.071,2.393-2.392
			c0-1.322-1.071-2.393-2.393-2.393C69.076,43.458,68.004,44.529,68.004,45.851z"/>
	</g>
	<g style="opacity:0.8;">
		<path style="fill:#E6E6DC;" d="M64.591,58.103c-6.715,0-21.88-10.21-27.657-9.161c-3.512,0.639-6.418,4.259-4.026,8.577
			c2.484,4.484,11.353,5.638,15.813,5.31c4.753-0.35,15.871-3.793,15.871-3.793V58.103z"/>
	</g>
	<g style="opacity:0.8;">
		<path style="fill:#E6E6DC;" d="M64.338,58.229c-5.204,1.822-19.725-1.976-23.915,0.404c-2.549,1.448-3.818,5.041-0.793,7.738
			c3.14,2.801,10.325,1.289,13.692-0.175c3.588-1.561,11.269-7.244,11.269-7.244L64.338,58.229z"/>
	</g>
	<g>
		<path style="fill:#281400;" d="M57.356,32.373c0,0.772-0.627,1.4-1.4,1.4c-0.774,0-1.401-0.627-1.401-1.4
			c0-0.774,0.627-1.401,1.401-1.401C56.729,30.972,57.356,31.599,57.356,32.373z"/>
	</g>
	<g>
		<path style="fill:#281400;" d="M75.678,32.373c0,0.772,0.627,1.4,1.4,1.4c0.773,0,1.4-0.627,1.4-1.4
			c0-0.774-0.627-1.401-1.4-1.401C76.304,30.972,75.678,31.599,75.678,32.373z"/>
	</g>
	<g>
		<path style="fill:#FFBE00;" d="M66.517,74.467h9.556c-0.07-2.528-0.561-4.678-1.317-6.47h-8.239V74.467z"/>
	</g>
	<g>
		<path style="fill:#412300;" d="M76.086,57.987c0-5.893-4.959-7.644-9.569-7.644v19.838C71.068,70.182,76.086,63.88,76.086,57.987z
			"/>
	</g>
	<g style="opacity:0.8;">
		<path style="fill:#E6E6DC;" d="M68.442,58.103c6.715,0,21.88-10.21,27.657-9.161c3.513,0.639,6.419,4.259,4.026,8.577
			c-2.484,4.484-11.352,5.638-15.812,5.31c-4.753-0.35-15.871-3.793-15.871-3.793V58.103z"/>
	</g>
	<g style="opacity:0.8;">
		<path style="fill:#E6E6DC;" d="M68.696,58.229c5.203,1.822,19.724-1.976,23.915,0.404c2.549,1.448,3.818,5.041,0.793,7.738
			c-3.142,2.801-10.326,1.289-13.693-0.175c-3.588-1.561-11.269-7.244-11.269-7.244L68.696,58.229z"/>
	</g>
	<g>
		<path style="fill:#FFBE00;" d="M72.9,85.88c1.105-1.932,2.08-4.138,2.646-6.47h-9.032v6.47H72.9z"/>
	</g>
</g>
<g>
	<g>
		<rect x="372.745" y="35.972" style="fill:#E6E6DC;" width="29.357" height="6.238"/>
	</g>
	<g>
		<rect x="371.52" y="38.155" style="fill:#E6E6DC;" width="31.805" height="1.872"/>
	</g>
	<g>
		<path style="fill:#FFAA00;" d="M403.183,88.381c-0.75,1.632-1.225,2.59-1.225,2.59h-29.072c0,0-0.475-0.959-1.227-2.59
			c-3.168-6.83-11.242-25.377-9.852-34.038c1.727-10.715,10.94-12.131,10.94-12.131h29.357c0,0,9.205,1.416,10.932,12.131
			C414.427,63.004,406.352,81.551,403.183,88.381z"/>
	</g>
	<g>
		<path style="fill:#FFBE00;" d="M402.104,42.212h-14.682v48.759h14.535c0,0,0.475-0.959,1.225-2.59
			c3.17-6.83,11.244-25.377,9.854-34.038C411.31,43.628,402.104,42.212,402.104,42.212z"/>
	</g>
	<g>
		<path style="fill:#E6E6DC;" d="M403.183,88.381c-0.75,1.632-1.225,2.59-1.225,2.59h-29.072c0,0-0.475-0.959-1.227-2.59H403.183z"
			/>
	</g>
	<g>
		<path style="fill:#FFFFFF;" d="M403.776,46.017c7.332,12.378,4.879,20.775-4.264,35.888c7.092-15.219,9.928-23.001-0.795-35.836
			L403.776,46.017z"/>
	</g>
	<g>
		<path style="fill:#E6E6DC;" d="M402.029,43.076c0.748,0.141,8.615,1.854,10.154,11.405c1.379,8.587-7.141,27.841-9.785,33.541
			c-0.431,0.935-0.771,1.652-0.98,2.087h-27.992c-0.21-0.436-0.552-1.153-0.983-2.09c-2.643-5.699-11.16-24.958-9.782-33.537
			c1.549-9.612,9.337-11.258,10.159-11.405H402.029L402.029,43.076z M402.104,42.212h-29.357c0,0-9.213,1.416-10.94,12.131
			c-1.391,8.661,6.684,27.208,9.852,34.038c0.752,1.632,1.227,2.59,1.227,2.59h29.072c0,0,0.475-0.959,1.225-2.59
			c3.17-6.83,11.244-25.377,9.854-34.038C411.31,43.628,402.104,42.212,402.104,42.212L402.104,42.212z"/>
	</g>
</g>
<g>
	<g>
		<rect x="156.102" y="267.004" style="fill:#A26A00;" width="40.036" height="45.084"/>
	</g>
	<g>
		<rect x="156.102" y="267.004" style="fill:#905C00;" width="10.011" height="45.084"/>
	</g>
	<g>
		<rect x="156.102" y="267.004" style="fill:#7E4E00;" width="4.554" height="45.084"/>
	</g>
	<g>
		<rect x="176.118" y="267.004" style="fill:#BB8000;" width="20.021" height="45.084"/>
	</g>
	<g>
		<path style="fill:#FFBE00;" d="M176.122,271.877c0-2.111,0.381,0.402,1.049,0c0.669-0.227,1.624-0.744,2.77,0
			c0.572-0.227,1.194-0.572,1.852-0.688c0.657-0.117,1.348-0.916,2.065,0.688c0.715,0.072,1.457,0.654,2.207,0.18
			c0.753,0.002,1.515-0.111,2.279-0.18c0.765-0.393,1.528-0.477,2.281-0.465c0.751,0.16,1.493-0.492,2.208,0.465
			c0.718-0.486,1.408,0.228,2.065-0.358c0.657,1.637,1.276-0.35,1.852,0.358c0.572-0.291,1.098,0,1.564,0c0.466,0,0.871,0,1.205,0
			c0.669,0,1.05,0,1.05,0s-17.229-35.844-24.446-35.844c-7.221,0-24.449,35.844-24.449,35.844s0.381,0,1.049,0
			c0.671-0.483,1.624-1.108,2.771,0c1.146,1.201,2.482-1.639,3.915,0c1.433,1.572,2.961,0.885,4.489,0
			c1.528-0.414,3.057,1.691,4.489,0c1.43,1.617,2.77-0.127,3.914,0c1.146,3.514,2.101-0.557,2.77,0
			C175.739,273.123,176.122,272.965,176.122,271.877z"/>
	</g>
	<g>
		<path style="fill:#5A3200;" d="M178.829,286.162c0,1.494-1.213,2.707-2.707,2.707c-1.495,0-2.708-1.213-2.708-2.707
			c0-1.494,1.213-2.707,2.708-2.707C177.616,283.455,178.829,284.668,178.829,286.162z"/>
	</g>
	<g>
		<rect x="159.301" y="312.088" style="fill:#5A3200;" width="2.707" height="13.945"/>
	</g>
	<g>
		<rect x="190.231" y="312.088" style="fill:#5A3200;" width="2.707" height="13.945"/>
	</g>
	<g>
		<rect x="186.127" y="267.004" style="fill:#B47800;" width="10.011" height="45.084"/>
	</g>
	<g>
		<rect x="191.584" y="267.004" style="fill:#A26A00;" width="4.554" height="45.084"/>
	</g>
	<g>
		<path style="fill:#FFCD00;" d="M177.17,271.877c0.669-0.227,1.624-0.744,2.77,0c0.572-0.227,1.194-0.572,1.852-0.688
			c0.657-0.117,1.348-0.916,2.065,0.688c0.715,0.072,1.457,0.654,2.207,0.18c0.753,0.002,1.515-0.111,2.279-0.18
			c0.765-0.393,1.528-0.477,2.281-0.465c0.751,0.16,1.493-0.492,2.208,0.465c0.718-0.486,1.408,0.228,2.065-0.358
			c0.657,1.637,1.276-0.35,1.852,0.358c0.572-0.291,1.098,0,1.564,0c0.466,0,0.871,0,1.205,0c0.669,0,1.05,0,1.05,0
			s-17.229-35.844-24.446-35.844v35.844C176.122,269.766,176.502,272.279,177.17,271.877z"/>
	</g>
</g>
<g>
	<g>
		<path style="fill:#C8C8BE;" d="M91.622,157.69c0,3.222-11.238,5.833-25.102,5.833c-13.864,0-25.102-2.611-25.102-5.833
			c0-3.221,11.238-5.832,25.102-5.832C80.384,151.858,91.622,154.47,91.622,157.69z"/>
	</g>
	<g>
		<g>
			<path style="fill:#FFD7AF;" d="M54.421,169.27c0,0-2.025,2.155-3.008-2.984c-1.051-5.495-1.014-8.476,0.87-9.104
				c1.206-0.401,1.551,0.625,1.551,0.625L54.421,169.27z"/>
		</g>
		<g>
			<path style="fill:#FFD7AF;" d="M58.557,177.015v3.887c0,1.415,0.636,2.755,1.733,3.649l3.388,2.764
				c1.726,1.408,4.203,1.413,5.936,0.014l3.438-2.777c1.107-0.894,1.75-2.24,1.75-3.663v-4.248L58.557,177.015z"/>
		</g>
		<g>
			<path style="fill:#F5CDA5;" d="M58.557,179.871c2.187,2.421,4.923,3.743,7.959,3.743c3.187,0,6.05-1.444,8.285-4.102v-2.872
				l-16.244,0.375V179.871z"/>
		</g>
		<g>
			<path style="fill:#FED9AE;" d="M66.516,181.67c7.417,0,13.106-7.77,13.106-20.641c0-16.051-4.709-19.778-13.106-19.778
				c-8.397,0-13.106,3.727-13.106,19.778C53.41,173.9,59.099,181.67,66.516,181.67z"/>
		</g>
		<g>
			<path style="fill:#FFD7AF;" d="M78.798,169.27c0,0,2.025,2.155,3.01-2.984c1.05-5.495,1.015-8.476-0.87-9.104
				c-1.205-0.401-1.552,0.625-1.552,0.625L78.798,169.27z"/>
		</g>
		<g>
			<path style="fill:#FFE1B9;" d="M66.68,141.253v40.405c7.336-0.114,12.943-7.854,12.943-20.629
				C79.623,145.085,74.974,141.303,66.68,141.253z"/>
		</g>
		<g>
			<path style="fill:#DCDCD2;" d="M54.433,186.605l-10.454,6.772c-0.991,0.642-1.704,1.632-2,2.774l-2.308,8.936h26.854V188.11
				L54.433,186.605z"/>
		</g>
		<g>
			<polygon style="fill:#E6E6E6;" points="58.568,180.641 57.743,180.641 54.433,186.605 62.334,194.374 66.526,188.11 			"/>
		</g>
		<g>
			<path style="fill:#DCDCD2;" d="M78.6,186.585l10.454,6.771c0.991,0.642,1.704,1.632,1.999,2.775l2.308,8.936H66.506V188.09
				L78.6,186.585z"/>
		</g>
		<g>
			<polygon style="fill:#E6E6E6;" points="74.465,180.623 75.29,180.623 78.6,186.585 70.699,194.354 66.507,188.089 			"/>
		</g>
		<g>
			<path style="fill:#969696;" d="M53.41,161.029c0,0-3.32-1.977-1.06-11.197c1.486-6.06,5.396-5.767,5.396-5.767
				S53.856,150.225,53.41,161.029z"/>
		</g>
		<g>
			<path style="fill:#969696;" d="M79.64,161.029c0,0,3.32-1.977,1.06-11.197c-1.486-6.06-5.396-5.767-5.396-5.767
				S79.194,150.225,79.64,161.029z"/>
		</g>
	</g>
	<g style="opacity:0.4;">
		<path style="fill:#649600;" d="M95.986,195.281c0,0-9.842,4.163-29.469,4.163c-19.618,0-29.469-4.163-29.469-4.163
			s5.896-11.142,5.896-19.542c0-4.153-0.998-14.08-1.346-17.367c-0.066-0.679-0.113-1.074-0.113-1.074v-0.01
			c0.895-3.033,11.754-5.434,25.033-5.434s24.148,2.401,25.042,5.434v0.01c0,0-0.047,0.395-0.113,1.074
			c-0.348,3.287-1.347,13.213-1.347,17.367C90.099,184.14,95.986,195.281,95.986,195.281z"/>
	</g>
	<g>
		<path style="fill:#DCDCD2;" d="M66.52,151.858c7.081,0,13.472,0.682,18.035,1.778h0.003c-1.585-2.406-6.043-14.232-6.806-14.938
			c-0.763-0.707-8.39-3.61-11.232-3.61c-2.843,0-10.47,2.904-11.233,3.61c-0.763,0.706-5.221,12.532-6.806,14.938h0.004
			C53.048,152.54,59.439,151.858,66.52,151.858z"/>
	</g>
	<g>
		<path style="fill:#E6E6DC;" d="M41.418,157.69c0.018-0.001-0.04-0.208,0.082-0.602c0.125-0.384,0.476-0.9,1.074-1.358
			c1.185-0.932,3.151-1.838,5.59-2.536c2.438-0.716,5.348-1.275,8.485-1.648c1.569-0.178,3.194-0.344,4.85-0.425
			c1.655-0.087,3.338-0.136,5.021-0.147c1.672,0.009,3.372,0.059,5.021,0.146c1.656,0.078,3.281,0.246,4.851,0.424
			c3.137,0.372,6.048,0.932,8.485,1.648c2.439,0.697,4.405,1.605,5.59,2.538c0.598,0.458,0.949,0.975,1.074,1.359
			c0.12,0.39,0.064,0.605,0.081,0.602c-0.016,0.004,0.001-0.22-0.169-0.564c-0.171-0.346-0.58-0.744-1.185-1.116
			c-1.211-0.764-3.213-1.343-5.633-1.832c-2.428-0.479-5.303-0.84-8.396-1.083c-1.546-0.13-3.149-0.192-4.777-0.268
			c-1.635-0.066-3.274-0.092-4.941-0.084c-1.657-0.01-3.313,0.018-4.942,0.084c-1.628,0.073-3.231,0.137-4.777,0.267
			c-3.093,0.242-5.968,0.604-8.396,1.083c-2.42,0.487-4.422,1.069-5.633,1.833c-0.604,0.372-1.014,0.77-1.184,1.116
			C41.417,157.464,41.433,157.699,41.418,157.69z"/>
	</g>
	<g>
		<path style="fill:#E6E6DC;" d="M84.555,153.636h0.003c-1.585-2.406-6.043-14.232-6.806-14.938c-0.763-0.707-8.39-3.61-11.232-3.61
			v16.771C73.601,151.858,79.992,152.54,84.555,153.636z"/>
	</g>
</g>
<g>
	<g>
		<polygon style="fill:#FFBE00;" points="382.477,185.233 368.296,193.421 354.114,185.233 354.114,168.858 368.296,160.669 
			382.477,168.858 		"/>
	</g>
	<g>
		<polygon style="fill:#FFAA00;" points="379.852,183.718 368.296,190.39 356.739,183.718 356.739,170.374 368.296,163.7 
			379.852,170.374 		"/>
	</g>
	<g>
		<polygon style="fill:#FFBE00;" points="397.659,159.649 383.477,167.839 369.296,159.649 369.296,143.274 383.477,135.087 
			397.659,143.274 		"/>
	</g>
	<g>
		<polygon style="fill:#FFAA00;" points="395.034,158.134 383.477,164.808 371.921,158.134 371.921,144.79 383.477,138.118 
			395.034,144.79 		"/>
	</g>
	<g>
		<polygon style="fill:#FFBE00;" points="412.841,185.233 398.659,193.421 384.477,185.233 384.477,168.858 398.659,160.669 
			412.841,168.858 		"/>
	</g>
	<g>
		<polygon style="fill:#FFAA00;" points="410.216,183.718 398.659,190.39 387.102,183.718 387.102,170.374 398.659,163.7 
			410.216,170.374 		"/>
	</g>
	<g>
		<g>
			<path style="fill:#281400;" d="M392.543,164.783h-0.538c0-4.555-6.008-8.351-6.068-8.389l0.285-0.457
				C386.479,156.099,392.543,159.933,392.543,164.783z"/>
		</g>
		<g>
			<path style="fill:#281400;" d="M396.403,164.783h-0.539c0-4.851,6.063-8.685,6.32-8.846l0.285,0.457
				C402.409,156.433,396.403,160.232,396.403,164.783z"/>
		</g>
		<g>
			<path style="fill:#281400;" d="M387.102,173.429l-4.652-4.632l-0.131-0.131l0.004-0.151l0.184-6.332l0.021,0.067l-1.744-2.583
				l1.934,2.444l0.02,0.025l0.002,0.042l0.363,6.325l-0.127-0.283l5.035,4.213c0.285,0.239,0.323,0.664,0.084,0.95
				c-0.239,0.285-0.664,0.322-0.949,0.084C387.131,173.455,387.116,173.442,387.102,173.429z"/>
		</g>
		<g>
			<path style="fill:#281400;" d="M389.291,184.055l-6.101,2.863l0.228-0.264l-3.338,9.015l-0.029,0.075l-0.067,0.023l-4.767,1.558
				l4.659-1.855l-0.097,0.099l2.765-9.208l0.05-0.168l0.178-0.098l5.907-3.24c0.327-0.179,0.736-0.061,0.915,0.267
				c0.179,0.325,0.06,0.735-0.266,0.914C389.315,184.043,389.302,184.05,389.291,184.055z"/>
		</g>
		<g>
			<path style="fill:#281400;" d="M387.829,188.177l-2.753,2.289l0.184-0.392l-0.882,12.238l-0.005,0.064l-0.041,0.035l-3.191,2.678
				l3.004-2.886l-0.046,0.099l0.057-12.27l0.001-0.216l0.184-0.175l2.592-2.469c0.27-0.257,0.697-0.247,0.953,0.022
				c0.257,0.269,0.246,0.696-0.023,0.952C387.852,188.156,387.84,188.168,387.829,188.177z"/>
		</g>
		<g>
			<path style="fill:#281400;" d="M400.395,172.434l5.035-4.213l-0.127,0.283l0.363-6.325l0.002-0.042l0.02-0.025l1.936-2.444
				l-1.747,2.583l0.022-0.067l0.184,6.332l0.005,0.151l-0.132,0.131l-4.652,4.632c-0.264,0.263-0.69,0.262-0.953-0.002
				c-0.262-0.265-0.261-0.691,0.003-0.953C400.366,172.46,400.382,172.446,400.395,172.434z"/>
		</g>
		<g>
			<path style="fill:#281400;" d="M399.726,182.855l5.907,3.24l0.179,0.098l0.051,0.168l2.764,9.208l-0.096-0.099l4.658,1.855
				l-4.766-1.558l-0.068-0.023l-0.028-0.075l-3.339-9.015l0.228,0.264l-6.1-2.863c-0.338-0.157-0.481-0.559-0.323-0.896
				c0.157-0.336,0.559-0.481,0.895-0.323C399.701,182.842,399.714,182.849,399.726,182.855z"/>
		</g>
		<g>
			<path style="fill:#281400;" d="M401.473,187.172l2.593,2.469l0.184,0.175l0.002,0.216l0.057,12.27l-0.047-0.099l3.003,2.886
				l-3.191-2.678l-0.041-0.035l-0.005-0.064l-0.882-12.238l0.186,0.392l-2.752-2.289c-0.287-0.237-0.326-0.662-0.088-0.948
				c0.238-0.286,0.662-0.325,0.948-0.088C401.45,187.15,401.463,187.161,401.473,187.172z"/>
		</g>
		<g>
			<path style="fill:#4E2B00;" d="M401.564,189.064c0,1.114-0.151,2.22-0.415,3.285c-0.435,1.794-1.185,3.492-2.035,4.978
				c-1.929,3.382-4.385,5.697-4.912,5.697c-0.528,0-2.978-2.315-4.907-5.697c-0.851-1.486-1.601-3.184-2.036-4.978
				c-0.264-1.065-0.415-2.171-0.415-3.285c0-0.172,0-0.345,0.011-0.517c0.055-1.944,0.432-3.599,1.014-4.978
				c1.47-3.527,4.255-5.23,6.334-5.23c2.078,0,4.868,1.702,6.339,5.23c0.581,1.379,0.958,3.033,1.013,4.978
				C401.564,188.719,401.564,188.892,401.564,189.064z"/>
		</g>
		<g>
			<path style="fill:#5A3200;" d="M399.114,197.327c0.85-1.486,1.6-3.184,2.035-4.978c0.264-1.065,0.415-2.171,0.415-3.285
				c0-0.172,0-0.345-0.011-0.517c-0.055-1.944-0.432-3.599-1.013-4.978c-1.471-3.527-4.261-5.23-6.339-5.23v24.684
				C394.729,203.024,397.185,200.708,399.114,197.327z"/>
		</g>
		<g>
			<path style="fill:#FFAA00;" d="M401.554,188.547h-14.699c0.055-1.944,0.432-3.599,1.014-4.978h12.673
				C401.122,184.948,401.499,186.602,401.554,188.547z"/>
		</g>
		<g>
			<path style="fill:#FFAA00;" d="M401.149,192.349c-0.435,1.794-1.185,3.492-2.035,4.978h-9.819
				c-0.851-1.486-1.601-3.184-2.036-4.978H401.149z"/>
		</g>
		<g>
			<path style="fill:#351C00;" d="M394.203,172.01c5.161,0,5.97-2.737,5.97-3.591c0-1.75-2.984-5.251-5.97-5.251
				c-2.984,0-5.97,3.501-5.97,5.251C388.233,169.273,389.042,172.01,394.203,172.01z"/>
		</g>
		<g>
			<path style="fill:#4E2B00;" d="M393.06,166.534c0,1.017-0.825,1.84-1.841,1.84c-1.017,0-1.84-0.823-1.84-1.84
				s0.823-1.84,1.84-1.84C392.234,164.694,393.06,165.518,393.06,166.534z"/>
		</g>
		<g>
			<path style="fill:#351C00;" d="M394.203,185.251c3.501,0,7.361-4.849,7.361-9.381c0-4.533-3.815-5.88-7.361-5.88
				s-7.36,1.347-7.36,5.88C386.843,180.402,390.702,185.251,394.203,185.251z"/>
		</g>
		<g>
			<path style="fill:#4E2B00;" d="M395.348,166.534c0,1.017,0.823,1.84,1.841,1.84c1.016,0,1.84-0.823,1.84-1.84
				s-0.824-1.84-1.84-1.84C396.171,164.694,395.348,165.518,395.348,166.534z"/>
		</g>
		<g style="opacity:0.8;">
			<path style="fill:#E6E6DC;" d="M392.722,175.959c-5.165,0-16.83-7.854-21.273-7.046c-2.703,0.491-4.938,3.275-3.098,6.597
				c1.91,3.45,8.732,4.338,12.164,4.085c3.656-0.268,12.207-2.918,12.207-2.918V175.959z"/>
		</g>
		<g style="opacity:0.8;">
			<path style="fill:#E6E6DC;" d="M392.527,176.056c-4.003,1.401-15.173-1.52-18.395,0.312c-1.961,1.113-2.938,3.877-0.611,5.952
				c2.416,2.154,7.943,0.991,10.533-0.135c2.76-1.201,8.668-5.572,8.668-5.572L392.527,176.056z"/>
		</g>
		<g>
			<path style="fill:#281400;" d="M387.156,156.166c0,0.595-0.481,1.077-1.077,1.077c-0.595,0-1.076-0.482-1.076-1.077
				s0.482-1.077,1.076-1.077C386.675,155.089,387.156,155.571,387.156,156.166z"/>
		</g>
		<g>
			<path style="fill:#281400;" d="M401.249,156.166c0,0.595,0.483,1.077,1.078,1.077c0.596,0,1.077-0.482,1.077-1.077
				s-0.481-1.077-1.077-1.077C401.732,155.089,401.249,155.571,401.249,156.166z"/>
		</g>
		<g>
			<path style="fill:#FFBE00;" d="M394.203,188.547h7.351c-0.055-1.944-0.432-3.599-1.013-4.978h-6.338V188.547z"/>
		</g>
		<g>
			<path style="fill:#412300;" d="M401.564,175.87c0-4.533-3.815-5.88-7.361-5.88v15.261
				C397.704,185.251,401.564,180.402,401.564,175.87z"/>
		</g>
		<g style="opacity:0.8;">
			<path style="fill:#E6E6DC;" d="M395.685,175.959c5.166,0,16.831-7.854,21.274-7.046c2.702,0.491,4.937,3.275,3.097,6.597
				c-1.91,3.45-8.733,4.338-12.162,4.085c-3.657-0.268-12.209-2.918-12.209-2.918V175.959z"/>
		</g>
		<g style="opacity:0.8;">
			<path style="fill:#E6E6DC;" d="M395.88,176.056c4.002,1.401,15.172-1.52,18.396,0.312c1.96,1.113,2.936,3.877,0.61,5.952
				c-2.417,2.154-7.943,0.991-10.533-0.135c-2.76-1.201-8.668-5.572-8.668-5.572L395.88,176.056z"/>
		</g>
		<g>
			<path style="fill:#FFBE00;" d="M399.114,197.327c0.85-1.486,1.6-3.184,2.035-4.978h-6.947v4.978H399.114z"/>
		</g>
	</g>
</g>
<g>
	<g>
		<rect x="144.287" y="150.254" style="fill:#BB8000;" width="63.666" height="48.333"/>
	</g>
	<g>
		<rect x="139.12" y="144.921" style="fill:#5A3200;" width="74" height="5.333"/>
	</g>
	<g>
		<rect x="161.537" y="141.587" style="fill:#7E4E00;" width="29.166" height="3.334"/>
	</g>
	<g>
		<defs>
			<rect id="SVGID_1_" x="146.285" y="152.255" width="59.67" height="44.329"/>
		</defs>
		<use xlink:href="#SVGID_1_"  style="overflow:visible;fill:#A26A00;"/>
		<clipPath id="SVGID_00000158740585125191184820000000522491175721228684_">
			<use xlink:href="#SVGID_1_"  style="overflow:visible;"/>
		</clipPath>
		<g style="clip-path:url(#SVGID_00000158740585125191184820000000522491175721228684_);">
			<g>
				<g>
					<g>
						<g>
							<polygon style="fill:#FFBE00;" points="154.196,157.797 150.242,160.081 146.287,157.797 146.287,153.23 150.242,150.948 
								154.196,153.23 							"/>
						</g>
						<g>
							<polygon style="fill:#FFAA00;" points="153.464,157.374 150.242,159.236 147.019,157.374 147.019,153.653 150.242,151.792 
								153.464,153.653 							"/>
						</g>
					</g>
					<g>
						<g>
							<polygon style="fill:#FFBE00;" points="162.822,157.797 158.869,160.081 154.914,157.797 154.914,153.23 158.869,150.948 
								162.822,153.23 							"/>
						</g>
						<g>
							<polygon style="fill:#FFAA00;" points="162.091,157.374 158.869,159.236 155.646,157.374 155.646,153.653 158.869,151.792 
								162.091,153.653 							"/>
						</g>
					</g>
					<g>
						<g>
							<polygon style="fill:#FFBE00;" points="171.448,157.797 167.494,160.081 163.539,157.797 163.539,153.23 167.494,150.948 
								171.448,153.23 							"/>
						</g>
						<g>
							<polygon style="fill:#FFAA00;" points="170.716,157.374 167.494,159.236 164.271,157.374 164.271,153.653 167.494,151.792 
								170.716,153.653 							"/>
						</g>
					</g>
					<g>
						<g>
							<polygon style="fill:#FFBE00;" points="180.074,157.796 176.12,160.081 172.165,157.796 172.165,153.23 176.12,150.947 
								180.074,153.23 							"/>
						</g>
						<g>
							<polygon style="fill:#FFAA00;" points="179.342,157.374 176.12,159.236 172.897,157.374 172.897,153.652 176.12,151.792 
								179.342,153.652 							"/>
						</g>
					</g>
					<g>
						<g>
							<polygon style="fill:#FFBE00;" points="188.701,157.797 184.747,160.081 180.791,157.797 180.791,153.23 184.747,150.948 
								188.701,153.23 							"/>
						</g>
						<g>
							<polygon style="fill:#FFAA00;" points="187.969,157.374 184.747,159.236 181.524,157.374 181.524,153.653 184.747,151.792 
								187.969,153.653 							"/>
						</g>
					</g>
					<g>
						<g>
							<polygon style="fill:#FFBE00;" points="197.327,157.797 193.373,160.081 189.417,157.797 189.417,153.23 193.373,150.948 
								197.327,153.23 							"/>
						</g>
						<g>
							<polygon style="fill:#FFAA00;" points="196.595,157.374 193.373,159.236 190.15,157.374 190.15,153.653 193.373,151.792 
								196.595,153.653 							"/>
						</g>
					</g>
					<g>
						<g>
							<polygon style="fill:#FFBE00;" points="205.953,157.797 201.998,160.081 198.043,157.797 198.043,153.23 201.998,150.948 
								205.953,153.23 							"/>
						</g>
						<g>
							<polygon style="fill:#FFAA00;" points="205.221,157.374 201.998,159.236 198.776,157.374 198.776,153.653 201.998,151.792 
								205.221,153.653 							"/>
						</g>
					</g>
				</g>
				<g>
					<g>
						<g>
							<polygon style="fill:#FFBE00;" points="158.446,165.422 154.492,167.706 150.537,165.422 150.537,160.855 154.492,158.573 
								158.446,160.855 							"/>
						</g>
						<g>
							<polygon style="fill:#FFAA00;" points="157.714,164.999 154.492,166.861 151.269,164.999 151.269,161.278 154.492,159.417 
								157.714,161.278 							"/>
						</g>
					</g>
					<g>
						<g>
							<polygon style="fill:#FFBE00;" points="167.072,165.422 163.119,167.706 159.164,165.422 159.164,160.855 163.119,158.573 
								167.072,160.855 							"/>
						</g>
						<g>
							<polygon style="fill:#FFAA00;" points="166.341,164.999 163.119,166.861 159.896,164.999 159.896,161.278 163.119,159.417 
								166.341,161.278 							"/>
						</g>
					</g>
					<g>
						<g>
							<polygon style="fill:#FFBE00;" points="175.698,165.422 171.744,167.706 167.789,165.422 167.789,160.855 171.744,158.573 
								175.698,160.855 							"/>
						</g>
						<g>
							<polygon style="fill:#FFAA00;" points="174.966,164.999 171.744,166.861 168.521,164.999 168.521,161.278 171.744,159.417 
								174.966,161.278 							"/>
						</g>
					</g>
					<g>
						<g>
							<polygon style="fill:#FFBE00;" points="184.324,165.421 180.37,167.706 176.415,165.421 176.415,160.855 180.37,158.572 
								184.324,160.855 							"/>
						</g>
						<g>
							<polygon style="fill:#FFAA00;" points="183.592,164.999 180.37,166.861 177.147,164.999 177.147,161.277 180.37,159.417 
								183.592,161.277 							"/>
						</g>
					</g>
					<g>
						<g>
							<polygon style="fill:#FFBE00;" points="192.951,165.422 188.997,167.706 185.041,165.422 185.041,160.855 188.997,158.573 
								192.951,160.855 							"/>
						</g>
						<g>
							<polygon style="fill:#FFAA00;" points="192.219,164.999 188.997,166.861 185.774,164.999 185.774,161.278 188.997,159.417 
								192.219,161.278 							"/>
						</g>
					</g>
					<g>
						<g>
							<polygon style="fill:#FFBE00;" points="201.577,165.422 197.623,167.706 193.667,165.422 193.667,160.855 197.623,158.573 
								201.577,160.855 							"/>
						</g>
						<g>
							<polygon style="fill:#FFAA00;" points="200.845,164.999 197.623,166.861 194.4,164.999 194.4,161.278 197.623,159.417 
								200.845,161.278 							"/>
						</g>
					</g>
					<g>
						<g>
							<path style="fill:#FFBE00;" d="M202.295,160.789v4.569l3.659,2.12v-8.8L202.295,160.789z"/>
						</g>
						<g>
							<polygon style="fill:#FFAA00;" points="205.955,159.528 205.955,166.628 203.025,164.938 203.025,161.218 							"/>
						</g>
					</g>
					<g>
						<g>
							<path style="fill:#FFBE00;" d="M146.285,158.781v8.72l3.601-2.08v-4.569L146.285,158.781z"/>
						</g>
						<g>
							<polygon style="fill:#FFAA00;" points="149.155,161.281 149.155,165.001 146.285,166.651 146.285,159.63 							"/>
						</g>
					</g>
				</g>
			</g>
			<g>
				<g>
					<g>
						<g>
							<polygon style="fill:#FFBE00;" points="154.196,172.866 150.242,175.15 146.287,172.866 146.287,168.298 150.242,166.016 
								154.196,168.298 							"/>
						</g>
						<g>
							<polygon style="fill:#FFAA00;" points="153.464,172.443 150.242,174.304 147.019,172.443 147.019,168.721 150.242,166.861 
								153.464,168.721 							"/>
						</g>
					</g>
					<g>
						<g>
							<polygon style="fill:#FFBE00;" points="162.822,172.866 158.869,175.15 154.914,172.866 154.914,168.298 158.869,166.016 
								162.822,168.298 							"/>
						</g>
						<g>
							<polygon style="fill:#FFAA00;" points="162.091,172.443 158.869,174.304 155.646,172.443 155.646,168.721 158.869,166.861 
								162.091,168.721 							"/>
						</g>
					</g>
					<g>
						<g>
							<polygon style="fill:#FFBE00;" points="171.448,172.866 167.494,175.15 163.539,172.866 163.539,168.298 167.494,166.016 
								171.448,168.298 							"/>
						</g>
						<g>
							<polygon style="fill:#FFAA00;" points="170.716,172.443 167.494,174.304 164.271,172.443 164.271,168.721 167.494,166.861 
								170.716,168.721 							"/>
						</g>
					</g>
					<g>
						<g>
							<polygon style="fill:#FFBE00;" points="180.074,172.865 176.12,175.15 172.165,172.865 172.165,168.298 176.12,166.015 
								180.074,168.298 							"/>
						</g>
						<g>
							<polygon style="fill:#FFAA00;" points="179.342,172.443 176.12,174.304 172.897,172.443 172.897,168.72 176.12,166.861 
								179.342,168.72 							"/>
						</g>
					</g>
					<g>
						<g>
							<polygon style="fill:#FFBE00;" points="188.701,172.866 184.747,175.15 180.791,172.866 180.791,168.298 184.747,166.016 
								188.701,168.298 							"/>
						</g>
						<g>
							<polygon style="fill:#FFAA00;" points="187.969,172.443 184.747,174.304 181.524,172.443 181.524,168.721 184.747,166.861 
								187.969,168.721 							"/>
						</g>
					</g>
					<g>
						<g>
							<polygon style="fill:#FFBE00;" points="197.327,172.866 193.373,175.15 189.417,172.866 189.417,168.298 193.373,166.016 
								197.327,168.298 							"/>
						</g>
						<g>
							<polygon style="fill:#FFAA00;" points="196.595,172.443 193.373,174.304 190.15,172.443 190.15,168.721 193.373,166.861 
								196.595,168.721 							"/>
						</g>
					</g>
					<g>
						<g>
							<polygon style="fill:#FFBE00;" points="205.953,172.866 201.998,175.15 198.043,172.866 198.043,168.298 201.998,166.016 
								205.953,168.298 							"/>
						</g>
						<g>
							<polygon style="fill:#FFAA00;" points="205.221,172.443 201.998,174.304 198.776,172.443 198.776,168.721 201.998,166.861 
								205.221,168.721 							"/>
						</g>
					</g>
				</g>
				<g>
					<g>
						<g>
							<polygon style="fill:#FFBE00;" points="158.446,180.491 154.492,182.775 150.537,180.491 150.537,175.923 154.492,173.641 
								158.446,175.923 							"/>
						</g>
						<g>
							<polygon style="fill:#FFAA00;" points="157.714,180.068 154.492,181.929 151.269,180.068 151.269,176.346 154.492,174.486 
								157.714,176.346 							"/>
						</g>
					</g>
					<g>
						<g>
							<polygon style="fill:#FFBE00;" points="167.072,180.491 163.119,182.775 159.164,180.491 159.164,175.923 163.119,173.641 
								167.072,175.923 							"/>
						</g>
						<g>
							<polygon style="fill:#FFAA00;" points="166.341,180.068 163.119,181.929 159.896,180.068 159.896,176.346 163.119,174.486 
								166.341,176.346 							"/>
						</g>
					</g>
					<g>
						<g>
							<polygon style="fill:#FFBE00;" points="175.698,180.491 171.744,182.775 167.789,180.491 167.789,175.923 171.744,173.641 
								175.698,175.923 							"/>
						</g>
						<g>
							<polygon style="fill:#FFAA00;" points="174.966,180.068 171.744,181.929 168.521,180.068 168.521,176.346 171.744,174.486 
								174.966,176.346 							"/>
						</g>
					</g>
					<g>
						<g>
							<polygon style="fill:#FFBE00;" points="184.324,180.49 180.37,182.775 176.415,180.49 176.415,175.923 180.37,173.64 
								184.324,175.923 							"/>
						</g>
						<g>
							<polygon style="fill:#FFAA00;" points="183.592,180.068 180.37,181.929 177.147,180.068 177.147,176.345 180.37,174.486 
								183.592,176.345 							"/>
						</g>
					</g>
					<g>
						<g>
							<polygon style="fill:#FFBE00;" points="192.951,180.491 188.997,182.775 185.041,180.491 185.041,175.923 188.997,173.641 
								192.951,175.923 							"/>
						</g>
						<g>
							<polygon style="fill:#FFAA00;" points="192.219,180.068 188.997,181.929 185.774,180.068 185.774,176.346 188.997,174.486 
								192.219,176.346 							"/>
						</g>
					</g>
					<g>
						<g>
							<polygon style="fill:#FFBE00;" points="201.577,180.491 197.623,182.775 193.667,180.491 193.667,175.923 197.623,173.641 
								201.577,175.923 							"/>
						</g>
						<g>
							<polygon style="fill:#FFAA00;" points="200.845,180.068 197.623,181.929 194.4,180.068 194.4,176.346 197.623,174.486 
								200.845,176.346 							"/>
						</g>
					</g>
					<g>
						<g>
							<path style="fill:#FFBE00;" d="M202.295,175.857v4.569l3.659,2.12v-8.8L202.295,175.857z"/>
						</g>
						<g>
							<polygon style="fill:#FFAA00;" points="205.955,174.596 205.955,181.697 203.025,180.006 203.025,176.287 							"/>
						</g>
					</g>
					<g>
						<g>
							<path style="fill:#FFBE00;" d="M146.285,173.849v8.72l3.601-2.08v-4.569L146.285,173.849z"/>
						</g>
						<g>
							<polygon style="fill:#FFAA00;" points="149.155,176.349 149.155,180.069 146.285,181.719 146.285,174.699 							"/>
						</g>
					</g>
				</g>
			</g>
			<g>
				<g>
					<g>
						<g>
							<polygon style="fill:#FFBE00;" points="154.196,187.984 150.242,190.268 146.287,187.984 146.287,183.417 150.242,181.134 
								154.196,183.417 							"/>
						</g>
						<g>
							<polygon style="fill:#FFAA00;" points="153.464,187.561 150.242,189.422 147.019,187.561 147.019,183.839 150.242,181.979 
								153.464,183.839 							"/>
						</g>
					</g>
					<g>
						<g>
							<polygon style="fill:#FFBE00;" points="162.822,187.984 158.869,190.268 154.914,187.984 154.914,183.417 158.869,181.134 
								162.822,183.417 							"/>
						</g>
						<g>
							<polygon style="fill:#FFAA00;" points="162.091,187.561 158.869,189.422 155.646,187.561 155.646,183.839 158.869,181.979 
								162.091,183.839 							"/>
						</g>
					</g>
					<g>
						<g>
							<polygon style="fill:#FFBE00;" points="171.448,187.984 167.494,190.268 163.539,187.984 163.539,183.417 167.494,181.134 
								171.448,183.417 							"/>
						</g>
						<g>
							<polygon style="fill:#FFAA00;" points="170.716,187.561 167.494,189.422 164.271,187.561 164.271,183.839 167.494,181.979 
								170.716,183.839 							"/>
						</g>
					</g>
					<g>
						<g>
							<polygon style="fill:#FFBE00;" points="180.074,187.983 176.12,190.268 172.165,187.983 172.165,183.417 176.12,181.133 
								180.074,183.417 							"/>
						</g>
						<g>
							<polygon style="fill:#FFAA00;" points="179.342,187.561 176.12,189.422 172.897,187.561 172.897,183.838 176.12,181.979 
								179.342,183.838 							"/>
						</g>
					</g>
					<g>
						<g>
							<polygon style="fill:#FFBE00;" points="188.701,187.984 184.747,190.268 180.791,187.984 180.791,183.417 184.747,181.134 
								188.701,183.417 							"/>
						</g>
						<g>
							<polygon style="fill:#FFAA00;" points="187.969,187.561 184.747,189.422 181.524,187.561 181.524,183.839 184.747,181.979 
								187.969,183.839 							"/>
						</g>
					</g>
					<g>
						<g>
							<polygon style="fill:#FFBE00;" points="197.327,187.984 193.373,190.268 189.417,187.984 189.417,183.417 193.373,181.134 
								197.327,183.417 							"/>
						</g>
						<g>
							<polygon style="fill:#FFAA00;" points="196.595,187.561 193.373,189.422 190.15,187.561 190.15,183.839 193.373,181.979 
								196.595,183.839 							"/>
						</g>
					</g>
					<g>
						<g>
							<polygon style="fill:#FFBE00;" points="205.953,187.984 201.998,190.268 198.043,187.984 198.043,183.417 201.998,181.134 
								205.953,183.417 							"/>
						</g>
						<g>
							<polygon style="fill:#FFAA00;" points="205.221,187.561 201.998,189.422 198.776,187.561 198.776,183.839 201.998,181.979 
								205.221,183.839 							"/>
						</g>
					</g>
				</g>
				<g>
					<g>
						<g>
							<polygon style="fill:#FFBE00;" points="158.446,195.609 154.492,197.893 150.537,195.609 150.537,191.041 154.492,188.759 
								158.446,191.041 							"/>
						</g>
						<g>
							<polygon style="fill:#FFAA00;" points="157.714,195.186 154.492,197.047 151.269,195.186 151.269,191.465 154.492,189.604 
								157.714,191.465 							"/>
						</g>
					</g>
					<g>
						<g>
							<polygon style="fill:#FFBE00;" points="167.072,195.609 163.119,197.893 159.164,195.609 159.164,191.041 163.119,188.759 
								167.072,191.041 							"/>
						</g>
						<g>
							<polygon style="fill:#FFAA00;" points="166.341,195.186 163.119,197.047 159.896,195.186 159.896,191.465 163.119,189.604 
								166.341,191.465 							"/>
						</g>
					</g>
					<g>
						<g>
							<polygon style="fill:#FFBE00;" points="175.698,195.609 171.744,197.893 167.789,195.609 167.789,191.041 171.744,188.759 
								175.698,191.041 							"/>
						</g>
						<g>
							<polygon style="fill:#FFAA00;" points="174.966,195.186 171.744,197.047 168.521,195.186 168.521,191.465 171.744,189.604 
								174.966,191.465 							"/>
						</g>
					</g>
					<g>
						<g>
							<polygon style="fill:#FFBE00;" points="184.324,195.607 180.37,197.893 176.415,195.607 176.415,191.041 180.37,188.758 
								184.324,191.041 							"/>
						</g>
						<g>
							<polygon style="fill:#FFAA00;" points="183.592,195.186 180.37,197.047 177.147,195.186 177.147,191.463 180.37,189.604 
								183.592,191.463 							"/>
						</g>
					</g>
					<g>
						<g>
							<polygon style="fill:#FFBE00;" points="192.951,195.609 188.997,197.893 185.041,195.609 185.041,191.041 188.997,188.759 
								192.951,191.041 							"/>
						</g>
						<g>
							<polygon style="fill:#FFAA00;" points="192.219,195.186 188.997,197.047 185.774,195.186 185.774,191.465 188.997,189.604 
								192.219,191.465 							"/>
						</g>
					</g>
					<g>
						<g>
							<polygon style="fill:#FFBE00;" points="201.577,195.609 197.623,197.893 193.667,195.609 193.667,191.041 197.623,188.759 
								201.577,191.041 							"/>
						</g>
						<g>
							<polygon style="fill:#FFAA00;" points="200.845,195.186 197.623,197.047 194.4,195.186 194.4,191.465 197.623,189.604 
								200.845,191.465 							"/>
						</g>
					</g>
					<g>
						<g>
							<path style="fill:#FFBE00;" d="M202.295,190.975v4.57l3.659,2.119v-8.799L202.295,190.975z"/>
						</g>
						<g>
							<polygon style="fill:#FFAA00;" points="205.955,189.715 205.955,196.814 203.025,195.125 203.025,191.404 							"/>
						</g>
					</g>
					<g>
						<g>
							<path style="fill:#FFBE00;" d="M146.285,188.967v8.72l3.601-2.08v-4.57L146.285,188.967z"/>
						</g>
						<g>
							<polygon style="fill:#FFAA00;" points="149.155,191.467 149.155,195.188 146.285,196.838 146.285,189.816 							"/>
						</g>
					</g>
				</g>
			</g>
		</g>
	</g>
	<g style="opacity:0.2;">
		<rect x="176.12" y="152.255" style="fill:#FFCD00;" width="29.835" height="44.329"/>
	</g>
</g>
<g>
	<g>
		<g>
			<g>
				<path style="fill:#B47800;" d="M306.86,173.158c-0.021-0.527-0.045-1.115-0.075-1.68c-0.049-0.893-0.788-1.592-1.683-1.592
					h-0.31c0.482-0.003,0.942-0.21,1.261-0.574c0.32-0.366,0.467-0.854,0.401-1.336c-0.077-0.577-0.165-1.148-0.263-1.714
					c-0.138-0.808-0.841-1.398-1.66-1.398h-0.706c0.52,0,1.01-0.239,1.329-0.648c0.319-0.408,0.434-0.941,0.309-1.445
					c-0.145-0.58-0.299-1.153-0.465-1.718c-0.21-0.718-0.869-1.211-1.617-1.211h-1.131c0.556,0,1.074-0.273,1.39-0.73
					c0.315-0.458,0.383-1.041,0.184-1.559c-0.225-0.587-0.463-1.162-0.712-1.728c-0.268-0.61-0.874-1.006-1.541-1.007
					c-0.438,0-1.009-0.001-1.673-0.001c0.592-0.01,1.136-0.323,1.434-0.835c0.302-0.52,0.303-1.161,0.005-1.683
					c-0.114-0.199-0.643-1.079-1.069-1.752c-0.309-0.487-0.848-0.783-1.425-0.783h-1.315c0.367-0.088,0.685-0.331,0.85-0.682
					c0.209-0.443,0.143-0.966-0.168-1.344c-0.741-0.899-1.52-1.732-2.331-2.498c-0.313-0.294-0.725-0.458-1.153-0.458
					c-0.409-0.001-0.999-0.001-1.72-0.001c0.358-0.008,0.674-0.239,0.784-0.581c0.112-0.348-0.014-0.73-0.311-0.943
					c-3.151-2.261-6.691-3.528-10.435-3.528c-3.742,0-7.283,1.267-10.439,3.528c-0.297,0.213-0.422,0.594-0.311,0.943
					c0.112,0.346,0.434,0.582,0.798,0.583c-0.729,0-1.325,0.001-1.737,0.001c-0.43,0-0.844,0.164-1.156,0.46
					c-0.809,0.764-1.588,1.598-2.327,2.497c-0.311,0.377-0.375,0.9-0.166,1.342c0.166,0.351,0.482,0.594,0.851,0.682h-1.32
					c-0.577,0-1.115,0.295-1.425,0.783c-0.43,0.678-0.964,1.569-1.068,1.752c-0.186,0.326-0.311,0.671-0.377,1.021
					c-0.07,0.37,0.029,0.752,0.27,1.042c0.234,0.282,0.578,0.446,0.944,0.454c-0.401,0-0.765,0.001-1.061,0.001
					c-0.668,0.001-1.272,0.396-1.542,1.007c-0.249,0.564-0.485,1.139-0.713,1.725c-0.2,0.519-0.132,1.102,0.183,1.56
					c0.314,0.458,0.835,0.732,1.391,0.732h-1.133c-0.751,0-1.41,0.495-1.619,1.215c-0.162,0.564-0.317,1.134-0.461,1.712
					c-0.126,0.504-0.012,1.038,0.308,1.446c0.32,0.409,0.809,0.648,1.328,0.648h-0.686c-0.827,0-1.53,0.596-1.663,1.413
					c-0.082,0.505-0.176,1.095-0.261,1.681c-0.071,0.485,0.075,0.976,0.395,1.347c0.252,0.29,0.595,0.48,0.967,0.549
					c-0.899,0.002-1.638,0.706-1.683,1.604l-0.08,1.669c-0.022,0.46,0.145,0.909,0.462,1.244c0.318,0.334,0.759,0.523,1.221,0.523
					l44.243,0.015c0.458,0,0.896-0.186,1.215-0.516C306.708,174.061,306.878,173.616,306.86,173.158z"/>
			</g>
			<g>
				<path style="fill:#B47800;" d="M303.825,184.952h-41.565c-0.52,0-1.009,0.239-1.329,0.648c-0.319,0.409-0.434,0.942-0.308,1.446
					c0.144,0.578,0.299,1.148,0.461,1.712c0.209,0.721,0.868,1.216,1.619,1.216h1.127c-0.554,0.002-1.071,0.274-1.385,0.731
					c-0.314,0.458-0.383,1.042-0.183,1.561c0.227,0.585,0.464,1.161,0.713,1.724c0.27,0.611,0.874,1.006,1.542,1.007
					c0.298,0,0.663,0.001,1.068,0.001c-0.369,0.007-0.716,0.171-0.952,0.455c-0.24,0.29-0.34,0.672-0.27,1.043
					c0.066,0.349,0.191,0.694,0.377,1.021c0.104,0.184,0.639,1.074,1.068,1.752c0.31,0.488,0.848,0.783,1.425,0.783h1.314
					c-0.365,0.09-0.68,0.332-0.845,0.682c-0.209,0.441-0.145,0.965,0.166,1.342c0.739,0.898,1.518,1.732,2.327,2.496
					c0.313,0.297,0.727,0.461,1.156,0.461c0.412,0,1.009,0,1.738,0c-0.365,0.002-0.687,0.236-0.799,0.584
					c-0.111,0.348,0.014,0.729,0.311,0.943c3.156,2.26,6.697,3.527,10.439,3.527c3.743,0,7.283-1.268,10.435-3.527
					c0.297-0.215,0.423-0.596,0.311-0.943c-0.11-0.344-0.426-0.574-0.784-0.582c0.721,0,1.311,0,1.72-0.002
					c0.429,0,0.841-0.164,1.153-0.457c0.812-0.766,1.59-1.6,2.331-2.498c0.311-0.377,0.377-0.9,0.168-1.344
					c-0.164-0.35-0.479-0.592-0.844-0.682h1.309c0.576,0,1.116-0.297,1.425-0.783c0.426-0.672,0.955-1.553,1.069-1.752
					c0.298-0.523,0.297-1.163-0.005-1.683c-0.299-0.515-0.846-0.828-1.439-0.836c0.664,0,1.239-0.001,1.678-0.001
					c0.667-0.001,1.273-0.396,1.541-1.007c0.249-0.565,0.486-1.14,0.712-1.727c0.199-0.519,0.131-1.102-0.184-1.56
					c-0.313-0.456-0.83-0.727-1.383-0.729h1.124c0.748,0,1.407-0.494,1.617-1.213c0.166-0.564,0.32-1.137,0.465-1.717
					c0.125-0.504,0.011-1.037-0.309-1.445C304.835,185.19,304.345,184.952,303.825,184.952z"/>
			</g>
			<g>
				<path style="fill:#B47800;" d="M305.175,174.907l-44.243,0.016c-0.462,0-0.902,0.189-1.221,0.523
					c-0.317,0.334-0.484,0.783-0.462,1.243l0.08,1.668c0.045,0.899,0.785,1.604,1.685,1.604h0.01
					c-0.377,0.067-0.724,0.257-0.979,0.551c-0.319,0.37-0.466,0.861-0.395,1.346c0.085,0.586,0.179,1.175,0.261,1.68
					c0.133,0.816,0.836,1.412,1.663,1.412h42.957c0.819,0,1.522-0.59,1.66-1.398c0.098-0.565,0.186-1.137,0.263-1.712
					c0.065-0.482-0.081-0.97-0.402-1.336c-0.317-0.363-0.777-0.571-1.26-0.574h0.31c0.895,0,1.634-0.699,1.683-1.592
					c0.03-0.565,0.055-1.154,0.075-1.681c0.018-0.458-0.152-0.904-0.471-1.233C306.071,175.093,305.633,174.907,305.175,174.907z"/>
			</g>
		</g>
		<g>
			<rect x="281.78" y="130.087" style="fill:#5A3200;" width="2.527" height="9.64"/>
		</g>
		<g>
			<path style="fill:#BB8000;" d="M293.478,206.56c0.297-0.215,0.423-0.596,0.311-0.943c-0.11-0.344-0.426-0.574-0.784-0.582
				c0.721,0,1.311,0,1.72-0.002c0.429,0,0.841-0.164,1.153-0.457c0.812-0.766,1.59-1.6,2.331-2.498
				c0.311-0.377,0.377-0.9,0.168-1.344c-0.164-0.35-0.479-0.592-0.844-0.682h1.309c0.576,0,1.116-0.297,1.425-0.783
				c0.426-0.672,0.955-1.553,1.069-1.752c0.298-0.523,0.297-1.163-0.005-1.683c-0.299-0.515-0.846-0.828-1.439-0.836
				c0.664,0,1.239-0.001,1.678-0.001c0.667-0.001,1.273-0.396,1.541-1.007c0.249-0.565,0.486-1.14,0.712-1.727
				c0.199-0.519,0.131-1.102-0.184-1.56c-0.313-0.456-0.83-0.727-1.383-0.729h1.124c0.748,0,1.407-0.494,1.617-1.213
				c0.166-0.564,0.32-1.137,0.465-1.717c0.125-0.504,0.011-1.037-0.309-1.445c-0.222-0.284-0.528-0.479-0.867-0.576l0.244-0.073
				c0.819,0,1.522-0.59,1.66-1.398c0.098-0.565,0.186-1.137,0.263-1.712c0.065-0.482-0.081-0.97-0.402-1.336
				c-0.317-0.363-0.777-0.571-1.26-0.574h0.31c0.895,0,1.634-0.699,1.683-1.592c0.03-0.565,0.055-1.154,0.075-1.681
				c0.018-0.458-0.152-0.904-0.471-1.233c-0.143-0.149-0.707-0.345-1.319-0.516h0.105c0.458,0,0.896-0.186,1.215-0.516
				c0.318-0.33,0.488-0.775,0.471-1.233c-0.021-0.527-0.045-1.115-0.075-1.68c-0.049-0.893-0.788-1.592-1.683-1.592h-0.31
				c0.482-0.003,0.942-0.21,1.261-0.574c0.32-0.366,0.467-0.854,0.401-1.336c-0.077-0.577-0.165-1.148-0.263-1.714
				c-0.138-0.808-0.841-1.398-1.66-1.398h-0.706c0.52,0,1.01-0.239,1.329-0.648c0.319-0.408,0.434-0.941,0.309-1.445
				c-0.145-0.58-0.299-1.153-0.465-1.718c-0.21-0.718-0.869-1.211-1.617-1.211h-1.131c0.556,0,1.074-0.273,1.39-0.73
				c0.315-0.458,0.383-1.041,0.184-1.559c-0.225-0.587-0.463-1.162-0.712-1.728c-0.268-0.61-0.874-1.006-1.541-1.007
				c-0.438,0-1.009-0.001-1.673-0.001c0.592-0.01,1.136-0.323,1.434-0.835c0.302-0.52,0.303-1.161,0.005-1.683
				c-0.114-0.199-0.643-1.079-1.069-1.752c-0.309-0.487-0.848-0.783-1.425-0.783h-1.315c0.367-0.088,0.685-0.331,0.85-0.682
				c0.209-0.443,0.143-0.966-0.168-1.344c-0.741-0.899-1.52-1.732-2.331-2.498c-0.313-0.294-0.725-0.458-1.153-0.458
				c-0.409-0.001-0.999-0.001-1.72-0.001c0.358-0.008,0.674-0.239,0.784-0.581c0.112-0.348-0.014-0.73-0.311-0.943
				c-3.151-2.261-6.691-3.528-10.435-3.528v70.36C286.787,210.087,290.327,208.819,293.478,206.56z"/>
		</g>
		<g>
			<g>
				<path style="fill:#A26A00;" d="M292.986,145.204h-19.89c-0.551,0-1.034-0.352-1.204-0.876c-0.169-0.525,0.019-1.093,0.466-1.415
					c3.342-2.394,6.936-3.607,10.685-3.607c3.751,0,7.345,1.214,10.681,3.608c0.447,0.322,0.635,0.89,0.466,1.415
					C294.021,144.852,293.537,145.204,292.986,145.204z M283.044,140.148c-3.569,0-6.999,1.161-10.194,3.449
					c-0.148,0.107-0.211,0.297-0.154,0.472c0.056,0.175,0.218,0.292,0.401,0.292h19.89c0.184,0,0.346-0.117,0.401-0.292
					c0.057-0.175-0.006-0.364-0.155-0.471C290.043,141.309,286.615,140.148,283.044,140.148z"/>
			</g>
			<g>
				<path style="fill:#A26A00;" d="M297.233,150.227h-28.386c-0.648,0-1.246-0.379-1.523-0.965c-0.277-0.586-0.19-1.289,0.222-1.79
					c0.743-0.903,1.538-1.756,2.363-2.535c0.392-0.37,0.905-0.574,1.445-0.574l17.516-0.004l5.854,0.002
					c0.538,0.001,1.05,0.205,1.442,0.574c0.819,0.773,1.615,1.626,2.367,2.535c0.413,0.501,0.501,1.204,0.224,1.792
					C298.48,149.848,297.883,150.227,297.233,150.227z M288.87,145.201l-17.516,0.004c-0.324,0-0.632,0.122-0.867,0.344
					c-0.799,0.754-1.57,1.582-2.291,2.457c-0.205,0.25-0.249,0.602-0.11,0.895c0.139,0.293,0.438,0.483,0.762,0.483h28.386
					c0.325,0,0.624-0.189,0.763-0.483c0.139-0.293,0.095-0.645-0.112-0.895c-0.728-0.882-1.501-1.71-2.295-2.458
					c-0.235-0.222-0.543-0.344-0.865-0.344L288.87,145.201z"/>
			</g>
			<g>
				<path style="fill:#A26A00;" d="M299.872,155.24h-34.264c-0.503,0-0.977-0.222-1.298-0.61c-0.322-0.389-0.453-0.896-0.359-1.39
					c0.075-0.402,0.219-0.79,0.425-1.151c0.105-0.185,0.645-1.084,1.079-1.768c0.387-0.613,1.053-0.98,1.78-0.98h31.606
					c0.728,0,1.394,0.366,1.781,0.98c0.431,0.679,0.965,1.568,1.079,1.769c0.371,0.648,0.369,1.455-0.007,2.103
					C301.32,154.839,300.622,155.24,299.872,155.24z M267.235,150.184c-0.437,0-0.836,0.22-1.068,0.588
					c-0.426,0.672-0.955,1.554-1.059,1.735c-0.16,0.28-0.271,0.579-0.329,0.89c-0.047,0.247,0.019,0.501,0.18,0.696
					c0.161,0.193,0.397,0.305,0.649,0.305h34.264c0.45,0,0.87-0.24,1.095-0.628c0.226-0.389,0.227-0.872,0.004-1.262
					c-0.113-0.198-0.638-1.07-1.06-1.736c-0.23-0.363-0.639-0.588-1.069-0.588H267.235z"/>
			</g>
			<g>
				<path style="fill:#A26A00;" d="M302.25,160.263h-38.413c-0.694,0-1.344-0.342-1.737-0.915c-0.393-0.574-0.479-1.303-0.228-1.951
					c0.228-0.592,0.469-1.173,0.72-1.743c0.336-0.764,1.092-1.257,1.927-1.259c5.621-0.005,31.431-0.005,37.052,0
					c0.835,0.002,1.592,0.496,1.929,1.259c0.251,0.571,0.49,1.152,0.719,1.745c0.249,0.648,0.163,1.378-0.229,1.949
					C303.594,159.921,302.944,160.263,302.25,160.263z M283.043,155.234c-7.858,0-15.714,0.001-18.524,0.004
					c-0.501,0.001-0.955,0.297-1.156,0.755c-0.245,0.559-0.481,1.128-0.706,1.708c-0.149,0.388-0.098,0.826,0.139,1.17
					c0.235,0.344,0.625,0.549,1.042,0.549h38.413c0.417,0,0.807-0.205,1.042-0.548c0.236-0.344,0.287-0.781,0.138-1.17
					c-0.223-0.579-0.458-1.149-0.703-1.708c-0.202-0.458-0.656-0.755-1.158-0.756C298.758,155.236,290.9,155.234,283.043,155.234z"
					/>
			</g>
			<g>
				<path style="fill:#A26A00;" d="M303.826,165.285H262.26c-0.653,0-1.258-0.296-1.66-0.81c-0.402-0.516-0.543-1.175-0.385-1.808
					c0.147-0.583,0.301-1.16,0.466-1.728c0.259-0.895,1.091-1.52,2.023-1.52h40.677c0.93,0,1.762,0.623,2.022,1.515
					c0.167,0.571,0.322,1.149,0.469,1.734c0.157,0.634,0.017,1.293-0.385,1.807C305.084,164.99,304.478,165.285,303.826,165.285z
					 M262.704,160.263c-0.56,0-1.059,0.375-1.215,0.912c-0.161,0.558-0.314,1.124-0.456,1.697c-0.094,0.374-0.008,0.78,0.23,1.085
					c0.237,0.304,0.61,0.486,0.996,0.486h41.566c0.392,0,0.756-0.177,0.997-0.486c0.241-0.308,0.325-0.704,0.23-1.084
					c-0.143-0.574-0.296-1.142-0.459-1.702c-0.156-0.535-0.655-0.908-1.214-0.908H262.704z"/>
			</g>
			<g>
				<path style="fill:#A26A00;" d="M304.782,170.308H261.32c-0.611,0-1.192-0.266-1.593-0.729c-0.402-0.464-0.582-1.078-0.494-1.683
					c0.086-0.589,0.18-1.181,0.262-1.688c0.167-1.024,1.041-1.767,2.08-1.767h42.955c1.029,0,1.902,0.735,2.076,1.748
					c0.099,0.571,0.188,1.148,0.266,1.73c0.081,0.602-0.102,1.21-0.503,1.668C305.969,170.045,305.391,170.308,304.782,170.308z
					 M261.575,165.285c-0.623,0-1.148,0.445-1.248,1.059c-0.082,0.502-0.174,1.091-0.26,1.674c-0.053,0.362,0.056,0.73,0.297,1.009
					c0.241,0.278,0.589,0.438,0.956,0.438h43.462c0.365,0,0.713-0.157,0.952-0.432c0.241-0.275,0.352-0.64,0.302-1.001
					c-0.076-0.572-0.163-1.138-0.26-1.699c-0.104-0.608-0.629-1.048-1.246-1.048H261.575z"/>
			</g>
			<g>
				<path style="fill:#A26A00;" d="M305.174,175.329l-44.242-0.016c-0.574,0-1.13-0.238-1.525-0.654
					c-0.396-0.415-0.606-0.981-0.578-1.554l0.08-1.668c0.055-1.124,0.979-2.005,2.104-2.005l44.09,0.033
					c1.119,0,2.043,0.875,2.103,1.992c0.03,0.566,0.056,1.158,0.075,1.686c0.021,0.568-0.192,1.13-0.587,1.541
					C306.298,175.094,305.744,175.329,305.174,175.329z M261.014,170.274c-0.676,0-1.23,0.528-1.264,1.203l-0.08,1.668
					c-0.017,0.344,0.109,0.684,0.347,0.933c0.237,0.249,0.57,0.392,0.915,0.392l44.242,0.016c0.343,0,0.675-0.141,0.912-0.387
					c0.237-0.246,0.365-0.584,0.353-0.925c-0.02-0.525-0.045-1.112-0.075-1.673c-0.036-0.669-0.59-1.193-1.261-1.194
					L261.014,170.274z"/>
			</g>
			<g>
				<path style="fill:#A26A00;" d="M283.044,210.509c-3.749,0-7.345-1.213-10.684-3.607c-0.448-0.322-0.636-0.89-0.467-1.415
					c0.17-0.524,0.653-0.877,1.204-0.877h19.89c0.551,0,1.035,0.353,1.204,0.877c0.169,0.525-0.018,1.093-0.468,1.415
					C290.389,209.295,286.795,210.509,283.044,210.509z M273.097,205.454c-0.184,0-0.346,0.118-0.401,0.292
					c-0.057,0.175,0.006,0.365,0.155,0.472c3.193,2.288,6.623,3.449,10.193,3.449c3.571,0,6.999-1.161,10.188-3.449
					c0.15-0.107,0.213-0.297,0.156-0.471c-0.056-0.175-0.218-0.292-0.401-0.292H273.097z"/>
			</g>
			<g>
				<path style="fill:#A26A00;" d="M288.788,205.456l-17.434-0.004c-0.539,0-1.052-0.204-1.445-0.574
					c-0.826-0.78-1.621-1.633-2.363-2.536c-0.412-0.502-0.499-1.204-0.222-1.791c0.277-0.586,0.875-0.965,1.523-0.965h28.386
					c0.65,0,1.249,0.379,1.524,0.966c0.277,0.587,0.19,1.29-0.224,1.791c-0.748,0.907-1.544,1.76-2.368,2.536
					c-0.391,0.369-0.903,0.573-1.442,0.574L288.788,205.456z M268.848,200.43c-0.324,0-0.623,0.189-0.762,0.483
					c-0.139,0.293-0.095,0.645,0.11,0.895c0.721,0.875,1.491,1.702,2.291,2.458c0.235,0.222,0.544,0.344,0.867,0.344l17.434,0.004
					l5.935-0.002c0.323-0.001,0.631-0.122,0.865-0.344c0.799-0.753,1.571-1.58,2.296-2.46c0.207-0.25,0.251-0.602,0.112-0.896
					c-0.138-0.294-0.438-0.482-0.763-0.482H268.848z"/>
			</g>
			<g>
				<path style="fill:#A26A00;" d="M298.842,200.473h-31.605c-0.727,0-1.393-0.366-1.781-0.979
					c-0.435-0.685-0.974-1.583-1.079-1.768c-0.205-0.359-0.348-0.747-0.425-1.151c-0.094-0.494,0.037-1.001,0.359-1.389
					c0.321-0.388,0.795-0.61,1.298-0.61h34.264c0.75,0,1.448,0.402,1.823,1.049c0.376,0.646,0.379,1.452,0.006,2.103
					c-0.113,0.2-0.648,1.089-1.079,1.768C300.234,200.107,299.568,200.473,298.842,200.473z M265.608,195.417
					c-0.252,0-0.488,0.111-0.649,0.305c-0.161,0.194-0.227,0.448-0.18,0.694c0.06,0.313,0.17,0.613,0.329,0.891
					c0.103,0.182,0.633,1.063,1.058,1.735c0.233,0.368,0.634,0.588,1.07,0.588h31.605c0.436,0,0.836-0.22,1.068-0.587
					c0.423-0.666,0.947-1.538,1.06-1.735c0.224-0.391,0.223-0.874-0.003-1.261c-0.226-0.389-0.645-0.629-1.095-0.629H265.608z"/>
			</g>
			<g>
				<path style="fill:#A26A00;" d="M283.043,195.423c-7.858,0-15.714-0.001-18.524-0.004c-0.836-0.001-1.592-0.495-1.928-1.259
					c-0.251-0.57-0.491-1.151-0.72-1.743c-0.251-0.648-0.165-1.378,0.228-1.951c0.394-0.573,1.043-0.915,1.737-0.915h38.413
					c0.694,0,1.344,0.342,1.737,0.914c0.393,0.571,0.478,1.3,0.229,1.949c-0.229,0.593-0.468,1.175-0.719,1.745
					c-0.337,0.765-1.094,1.259-1.929,1.26C298.758,195.422,290.9,195.423,283.043,195.423z M263.837,190.395
					c-0.417,0-0.807,0.205-1.042,0.549c-0.236,0.344-0.288,0.782-0.139,1.17c0.225,0.58,0.461,1.149,0.706,1.708
					c0.201,0.458,0.655,0.754,1.156,0.755c5.621,0.005,31.428,0.005,37.051,0c0.501-0.001,0.955-0.297,1.157-0.756
					c0.245-0.558,0.48-1.127,0.703-1.708c0.149-0.389,0.099-0.827-0.138-1.169c-0.235-0.343-0.625-0.548-1.042-0.548H263.837z"/>
			</g>
			<g>
				<path style="fill:#A26A00;" d="M303.381,190.395h-40.677c-0.933,0-1.765-0.625-2.023-1.52c-0.165-0.568-0.319-1.144-0.466-1.728
					c-0.158-0.633-0.017-1.292,0.385-1.808c0.402-0.515,1.007-0.81,1.66-0.81h41.566c0.652,0,1.258,0.295,1.661,0.809
					c0.401,0.514,0.542,1.173,0.385,1.807c-0.147,0.586-0.302,1.164-0.469,1.735C305.143,189.773,304.31,190.395,303.381,190.395z
					 M262.26,185.373c-0.386,0-0.759,0.182-0.996,0.486c-0.238,0.305-0.324,0.711-0.23,1.085c0.143,0.573,0.295,1.139,0.456,1.697
					c0.156,0.537,0.655,0.912,1.215,0.912h40.677c0.559,0,1.058-0.374,1.214-0.908c0.163-0.56,0.316-1.127,0.459-1.702
					c0.095-0.38,0.011-0.775-0.23-1.084c-0.241-0.308-0.605-0.485-0.997-0.485H262.26z"/>
			</g>
			<g>
				<path style="fill:#A26A00;" d="M304.531,185.373h-42.957c-1.038,0-1.912-0.743-2.079-1.766
					c-0.082-0.507-0.176-1.099-0.262-1.687c-0.088-0.605,0.092-1.218,0.494-1.683c0.4-0.463,0.982-0.729,1.593-0.729h43.461
					c0.608,0,1.188,0.262,1.588,0.719c0.401,0.459,0.584,1.067,0.503,1.67c-0.078,0.58-0.167,1.157-0.266,1.728
					C306.433,184.637,305.56,185.373,304.531,185.373z M261.32,180.351c-0.367,0-0.715,0.159-0.956,0.438
					c-0.241,0.279-0.35,0.647-0.297,1.009c0.086,0.583,0.178,1.17,0.26,1.673c0.1,0.613,0.624,1.059,1.247,1.059h42.957
					c0.617,0,1.141-0.44,1.245-1.048c0.097-0.561,0.184-1.126,0.26-1.698c0.05-0.361-0.061-0.727-0.302-1.002
					c-0.239-0.274-0.587-0.431-0.953-0.431H261.32z"/>
			</g>
			<g>
				<path style="fill:#A26A00;" d="M261.014,180.383h-0.001c-1.125,0-2.05-0.881-2.104-2.005l-0.08-1.668
					c-0.028-0.572,0.183-1.139,0.579-1.554c0.395-0.416,0.95-0.654,1.524-0.654l44.242-0.017c0.57,0,1.124,0.235,1.52,0.645
					c0.395,0.411,0.608,0.973,0.587,1.542c-0.02,0.529-0.045,1.12-0.075,1.688c-0.06,1.116-0.983,1.991-2.103,1.992L261.014,180.383
					z M305.174,175.328l-44.242,0.017c-0.345,0-0.678,0.143-0.914,0.392c-0.238,0.249-0.364,0.589-0.348,0.933l0.08,1.668
					c0.033,0.674,0.588,1.203,1.263,1.203l44.09-0.031c0.671-0.001,1.225-0.525,1.261-1.194c0.03-0.563,0.056-1.149,0.075-1.674
					c0.013-0.342-0.115-0.679-0.353-0.926C305.849,175.469,305.517,175.328,305.174,175.328z"/>
			</g>
		</g>
		<g>
			<path style="fill:#5A3200;" d="M287.901,181.911c0,2.733-2.217,4.951-4.95,4.951c-2.734,0-4.951-2.217-4.951-4.951
				c0-2.735,2.217-4.951,4.951-4.951C285.685,176.96,287.901,179.176,287.901,181.911z"/>
		</g>
	</g>
	<g>
		<g>
			<path style="fill:#281400;" d="M289.041,169.03c-1.048-1.489-3.886-1.348-3.915-1.346l-0.013-0.215
				c0.122-0.007,2.987-0.15,4.105,1.437L289.041,169.03z"/>
		</g>
		<g>
			<path style="fill:#281400;" d="M294.267,171.251l-2.589,1.797l0.052-0.154l0.552,2.229l0.009,0.034l-0.024,0.019l-1,0.792
				l0.934-0.87l-0.016,0.053l-0.729-2.178l-0.029-0.088l0.081-0.066l2.436-1.999c0.115-0.094,0.285-0.078,0.379,0.038
				c0.095,0.115,0.078,0.285-0.037,0.379C294.279,171.242,294.272,171.247,294.267,171.251z"/>
		</g>
		<g>
			<path style="fill:#4E2B00;" d="M301.544,174.913c-0.291,1.753-1.33,2.794-1.603,2.643c-0.114-0.327-0.415-0.771-0.816-1.294
				c-0.125-0.164-0.26-0.334-0.404-0.511c-0.093-0.114-0.188-0.232-0.287-0.353c-0.15-0.181-0.306-0.371-0.465-0.563
				c-0.225-0.269-0.453-0.547-0.684-0.832c-0.224-0.276-0.445-0.558-0.663-0.84c-0.065-0.085-0.129-0.17-0.193-0.254
				c-0.403-0.54-0.78-1.085-1.079-1.611c-0.352-0.618-0.604-1.21-0.686-1.745v-0.83c0.48-0.306,1.286-0.523,2.183-0.493
				c0.476,0.015,0.977,0.099,1.471,0.275c0.196,0.069,0.39,0.155,0.582,0.257c0.417,0.217,0.816,0.515,1.176,0.902
				c0.05,0.052,0.097,0.105,0.145,0.162c0.061,0.069,0.118,0.142,0.173,0.217c0.036,0.046,0.07,0.093,0.105,0.143
				c0.008,0.015,0.018,0.03,0.031,0.045c0.044,0.069,0.089,0.138,0.134,0.212c0.046,0.075,0.091,0.153,0.134,0.232
				c0.109,0.198,0.209,0.409,0.3,0.638c0.017,0.041,0.032,0.084,0.05,0.127c0.008,0.024,0.017,0.046,0.025,0.069
				c0.021,0.063,0.045,0.127,0.066,0.194c0.037,0.114,0.073,0.232,0.105,0.353c0.011,0.038,0.022,0.078,0.03,0.116
				c0.048,0.179,0.089,0.364,0.123,0.558c0.011,0.05,0.02,0.099,0.028,0.151c0.011,0.067,0.022,0.136,0.032,0.205
				C301.655,173.754,301.636,174.368,301.544,174.913z"/>
		</g>
		<g>
			<path style="fill:#351C00;" d="M291.159,168.333c-0.729,0.962,0.103,4.428,2.732,3.946c2.352-0.431,2.131-2.014,2.19-2.926
				c0.06-0.915-0.197-3.518-3.231-2.208C292.136,167.454,291.472,167.921,291.159,168.333z"/>
		</g>
		<g>
			<path style="fill:#281400;" d="M294.595,171.414l-1.951,2.475l0.004-0.162l1.18,1.971l0.018,0.03l-0.018,0.025l-0.725,1.05
				l0.639-1.105v0.055l-1.333-1.871l-0.054-0.075l0.058-0.087l1.747-2.623c0.082-0.124,0.249-0.158,0.373-0.075
				c0.124,0.082,0.157,0.25,0.075,0.374C294.603,171.402,294.599,171.408,294.595,171.414z"/>
		</g>
		<g>
			<g>
				<path style="fill:#FFAA00;" d="M301.557,173.086c-0.072-0.491-0.178-0.933-0.308-1.336c-0.078,0.302-0.183,0.608-0.317,0.914
					c-0.631,1.443-1.712,2.429-2.659,2.539c0.311,0.376,0.6,0.732,0.852,1.058c0.763,0.153,1.69-0.384,2.42-1.349
					C301.636,174.368,301.655,173.754,301.557,173.086z"/>
			</g>
		</g>
		<g>
			<g>
				<path style="fill:#FFAA00;" d="M298.898,168.763c-0.191-0.101-0.386-0.185-0.582-0.254c0.061,0.723-0.091,1.59-0.47,2.452
					c-0.361,0.824-0.871,1.499-1.417,1.947c0.064,0.086,0.126,0.171,0.191,0.256c0.218,0.282,0.439,0.564,0.663,0.84
					c0.221-0.071,0.444-0.183,0.664-0.336c0.636-0.435,1.238-1.183,1.652-2.124c0.239-0.547,0.388-1.094,0.448-1.607v-0.002
					c0.013-0.091,0.021-0.181,0.025-0.27C299.715,169.277,299.315,168.98,298.898,168.763z"/>
			</g>
		</g>
		<g style="opacity:0.8;">
			<path style="fill:#E6E6DC;" d="M293.498,168.508c0.947-0.234,1.834-0.804,2.601-1.385c0.668-0.505,1.323-1.036,1.869-1.674
				c0.521-0.61,0.861-1.32,1.24-2.02c0.397-0.734,0.957-1.753,1.81-2.025c0.218-0.069,0.536-0.084,0.754-0.003
				c0.735,0.271,0.869,1.454,0.773,2.119C302.045,166.966,296.053,170.035,293.498,168.508z"/>
		</g>
		<g style="opacity:0.8;">
			<path style="fill:#E6E6DC;" d="M295.649,167.449c0.153-0.107,0.305-0.216,0.449-0.326c0.501-0.379,0.994-0.772,1.44-1.214
				c0.866-1.321,1.361-2.799,1.112-4.076c-0.128-0.66-0.645-1.732-1.428-1.745c-0.232-0.004-0.527,0.114-0.71,0.251
				c-0.716,0.538-0.908,1.684-1.042,2.508c-0.127,0.786-0.213,1.569-0.504,2.316c-0.224,0.572-0.521,1.109-0.846,1.629
				C294.883,166.73,295.357,167.026,295.649,167.449z"/>
		</g>
		<g>
			<path style="fill:#281400;" d="M285.472,167.328c0.137,0.195,0.091,0.463-0.103,0.601c-0.195,0.137-0.464,0.09-0.601-0.105
				c-0.138-0.194-0.091-0.463,0.105-0.6C285.065,167.086,285.335,167.133,285.472,167.328z"/>
		</g>
		<g>
			<path style="fill:#412300;" d="M290.185,167.648c-1.45,0-2.517,1.551-2.112,3.134l-0.002,0c0.147,0.342,0.701,1.711,0.67,2.09
				c0.605,0.127,1.8-0.206,2.399-0.55l-0.002-0.001C293.236,171.189,292.513,167.648,290.185,167.648z"/>
		</g>
		<g>
			<path style="fill:#281400;" d="M296.978,171.534l-1.427,3.257l-0.01-0.125l1.314,2.473l0.012,0.022l-0.01,0.02l-0.597,1.111
				l0.517-1.151l0.001,0.042l-1.485-2.373l-0.034-0.055l0.024-0.07l1.193-3.349c0.051-0.14,0.205-0.213,0.345-0.164
				c0.141,0.05,0.214,0.204,0.163,0.344C296.983,171.523,296.981,171.529,296.978,171.534z"/>
		</g>
		<g>
			<path style="fill:#281400;" d="M298.27,172.81l-0.519,3.774l-0.035-0.109l1.849,2.253l0.019,0.023l-0.011,0.025l-0.546,1.312
				l0.459-1.345l0.008,0.047l-1.993-2.126l-0.04-0.042l0.006-0.067l0.27-3.801c0.01-0.148,0.139-0.26,0.287-0.249
				c0.148,0.01,0.261,0.139,0.25,0.288C298.272,172.797,298.271,172.804,298.27,172.81z"/>
		</g>
		<g>
			<path style="fill:#281400;" d="M289.764,170.456c0,0.471-0.266,0.853-0.593,0.853c-0.327,0-0.592-0.382-0.592-0.853
				c0-0.471,0.265-0.852,0.592-0.852C289.498,169.604,289.764,169.986,289.764,170.456z"/>
		</g>
		<g>
			<path style="fill:#281400;" d="M289.276,168.599c0.001,0.023-0.008,0.046-0.023,0.063c-0.017,0.017-0.039,0.026-0.063,0.026
				h-0.084c-0.023,0-0.043-0.019-0.043-0.042c-0.037-1.801-2.399-3.293-2.424-3.308l0.114-0.183
				C286.854,165.219,289.204,166.704,289.276,168.599z"/>
		</g>
		<g>
			<path style="fill:#281400;" d="M287.124,165.242c0,0.238-0.192,0.431-0.431,0.431c-0.237,0-0.431-0.193-0.431-0.431
				c0-0.238,0.193-0.431,0.431-0.431C286.932,164.811,287.124,165.004,287.124,165.242z"/>
		</g>
	</g>
</g>
<g>
	<g>
		<polygon style="fill:#FFBE00;" points="177.12,371.723 191.301,363.535 205.483,371.723 205.483,388.098 191.301,396.287 
			177.12,388.098 		"/>
	</g>
	<g>
		<polygon style="fill:#FFAA00;" points="179.745,373.238 191.301,366.566 202.858,373.238 202.858,386.582 191.301,393.256 
			179.745,386.582 		"/>
	</g>
	<g>
		<polygon style="fill:#FFBE00;" points="161.938,397.307 176.12,389.117 190.301,397.307 190.301,413.682 176.12,421.869 
			161.938,413.682 		"/>
	</g>
	<g>
		<polygon style="fill:#FFAA00;" points="164.563,398.822 176.12,392.148 187.676,398.822 187.676,412.166 176.12,418.838 
			164.563,412.166 		"/>
	</g>
	<g>
		<polygon style="fill:#FFBE00;" points="146.756,371.723 160.938,363.535 175.12,371.723 175.12,388.098 160.938,396.287 
			146.756,388.098 		"/>
	</g>
	<g>
		<polygon style="fill:#FFAA00;" points="149.381,373.238 160.938,366.566 172.495,373.238 172.495,386.582 160.938,393.256 
			149.381,386.582 		"/>
	</g>
</g>
<g>
	<g>
		<path style="fill:#FFAA00;" d="M301.329,402.848c0,10.094-8.182,18.275-18.275,18.275c-10.093,0-18.274-8.182-18.274-18.275
			c0-10.092,18.274-38.566,18.274-38.566S301.329,392.756,301.329,402.848z"/>
	</g>
	<g>
		<path style="fill:#FFAA00;" d="M301.329,402.848c0,10.094-8.182,18.275-18.275,18.275c-10.093,0-18.274-8.182-18.274-18.275
			c0-10.092,18.274-38.566,18.274-38.566S301.329,392.756,301.329,402.848z"/>
	</g>
	<g>
		<path style="fill:#FFBE00;" d="M283.054,419.123c-8.974,0-16.274-7.301-16.274-16.275c0-7.031,10.541-25.535,16.274-34.809
			c5.734,9.275,16.275,27.779,16.275,34.809C299.329,411.822,292.028,419.123,283.054,419.123z"/>
	</g>
	<g style="opacity:0.5;">
		<path style="fill:#FFFFFF;" d="M283.054,368.039c-0.113,0.184-0.231,0.375-0.349,0.566c5.893,9.764,14.843,25.982,14.843,32.461
			c0,8.975-7.301,16.275-16.275,16.275c-4.034,0-7.723-1.484-10.569-3.924c2.987,3.486,7.411,5.705,12.351,5.705
			c8.975,0,16.275-7.301,16.275-16.275C299.329,395.818,288.788,377.315,283.054,368.039z"/>
	</g>
	<g>
		<polygon style="fill:#FFAA00;" points="270.703,394.852 276.076,391.75 281.449,394.852 281.449,401.057 276.076,404.158 
			270.703,401.057 		"/>
	</g>
	<g>
		<polygon style="fill:#FFAA00;" points="282.37,394.852 287.743,391.75 293.116,394.852 293.116,401.057 287.743,404.158 
			282.37,401.057 		"/>
	</g>
	<g>
		<polygon style="fill:#FFAA00;" points="276.537,405.102 281.91,402 287.283,405.102 287.283,411.307 281.91,414.408 
			276.537,411.307 		"/>
	</g>
</g>
<g>
	<g>
		<path style="fill:#EBEBEB;" d="M61.227,376.684c0,7.721-3.993,13.98-3.993,13.98s-3.991-6.26-3.991-13.98
			c0-7.723,1.787-13.98,3.991-13.98C59.439,362.703,61.227,368.961,61.227,376.684z"/>
	</g>
	<g>
		<path style="fill:#E6E6E6;" d="M69.943,383.602c-5.459,5.459-12.709,7.063-12.709,7.063s1.605-7.25,7.064-12.709
			c5.46-5.459,11.149-8.621,12.709-7.063C78.565,372.451,75.404,378.141,69.943,383.602z"/>
	</g>
	<g>
		<path style="fill:#EBEBEB;" d="M71.215,394.658c-7.72-0.002-13.981-3.994-13.981-3.994s6.261-3.992,13.981-3.992
			c7.722,0,13.981,1.787,13.982,3.992C85.197,392.869,78.938,394.656,71.215,394.658z"/>
	</g>
	<g>
		<path style="fill:#EBEBEB;" d="M64.296,403.373c-5.458-5.459-7.063-12.709-7.063-12.709s7.25,1.605,12.708,7.063
			c5.46,5.461,8.622,11.15,7.064,12.711C75.448,411.996,69.757,408.834,64.296,403.373z"/>
	</g>
	<g>
		<path style="fill:#EBEBEB;" d="M53.242,404.645c0.001-7.719,3.992-13.98,3.992-13.98s3.992,6.262,3.993,13.98
			c0,7.723-1.788,13.98-3.993,13.983C55.029,418.627,53.242,412.367,53.242,404.645z"/>
	</g>
	<g>
		<path style="fill:#EBEBEB;" d="M44.526,397.727c5.457-5.457,12.707-7.063,12.707-7.063s-1.604,7.25-7.062,12.707
			c-5.461,5.461-11.15,8.623-12.711,7.066C35.903,408.879,39.065,403.188,44.526,397.727z"/>
	</g>
	<g>
		<path style="fill:#EBEBEB;" d="M43.254,386.672c7.718,0,13.979,3.992,13.979,3.992s-6.261,3.992-13.978,3.992
			c-7.724,0-13.982-1.787-13.984-3.992C29.271,388.459,35.532,386.672,43.254,386.672z"/>
	</g>
	<g>
		<path style="fill:#EBEBEB;" d="M50.172,377.955c5.457,5.459,7.062,12.709,7.062,12.709s-7.25-1.605-12.707-7.063
			c-5.462-5.459-8.624-11.15-7.066-12.709C39.021,369.332,44.711,372.496,50.172,377.955z"/>
	</g>
	<g>
		<path style="fill:#F0F0F0;" d="M55.817,376.195c2.833,7.18,1.417,14.469,1.417,14.469s-6.011-4.357-8.843-11.537
			c-2.836-7.184-3.47-13.662-1.42-14.473C49.021,363.846,52.982,369.014,55.817,376.195z"/>
	</g>
	<g>
		<path style="fill:#F0F0F0;" d="M66.463,379.43c-3.073,7.082-9.23,11.234-9.23,11.234s-1.168-7.332,1.906-14.41
			c3.074-7.086,7.207-12.115,9.229-11.24C70.391,365.893,69.537,372.348,66.463,379.43z"/>
	</g>
	<g>
		<path style="fill:#F0F0F0;" d="M71.705,389.248c-7.18,2.832-14.471,1.416-14.471,1.416s4.358-6.01,11.538-8.842
			c7.185-2.838,13.663-3.471,14.473-1.422C84.055,382.451,78.886,386.412,71.705,389.248z"/>
	</g>
	<g>
		<path style="fill:#F0F0F0;" d="M68.468,399.895c-7.079-3.074-11.234-9.23-11.234-9.23s7.333-1.168,14.411,1.906
			c7.087,3.074,12.114,7.207,11.239,9.228C82.007,403.82,75.55,402.967,68.468,399.895z"/>
	</g>
	<g>
		<path style="fill:#F0F0F0;" d="M58.651,405.135c-2.832-7.18-1.417-14.471-1.417-14.471s6.01,4.359,8.843,11.537
			c2.838,7.185,3.47,13.662,1.422,14.473C65.448,417.484,61.485,412.315,58.651,405.135z"/>
	</g>
	<g>
		<path style="fill:#F0F0F0;" d="M48.004,401.898c3.074-7.08,9.229-11.234,9.229-11.234s1.168,7.332-1.905,14.412
			c-3.074,7.086-7.207,12.113-9.229,11.238C44.077,415.438,44.931,408.98,48.004,401.898z"/>
	</g>
	<g>
		<path style="fill:#F0F0F0;" d="M42.765,392.082c7.18-2.834,14.469-1.418,14.469-1.418s-4.358,6.01-11.538,8.842
			c-7.185,2.838-13.662,3.471-14.472,1.422C30.414,398.879,35.583,394.916,42.765,392.082z"/>
	</g>
	<g>
		<path style="fill:#F0F0F0;" d="M46.001,381.435c7.08,3.072,11.233,9.229,11.233,9.229s-7.332,1.168-14.411-1.906
			c-7.086-3.072-12.115-7.207-11.239-9.229C32.461,377.508,38.919,378.361,46.001,381.435z"/>
	</g>
	<g>
		<path style="fill:#FFCD00;" d="M63.311,390.664c0,3.355-2.721,6.076-6.077,6.076c-3.355,0-6.076-2.721-6.076-6.076
			c0-3.355,2.721-6.076,6.076-6.076C60.589,384.588,63.311,387.309,63.311,390.664z"/>
	</g>
	<g>
		<path style="fill:#FFBE00;" d="M61.286,390.664c0,2.238-1.815,4.053-4.052,4.053c-2.237,0-4.052-1.814-4.052-4.053
			c0-2.236,1.815-4.051,4.052-4.051C59.471,386.613,61.286,388.428,61.286,390.664z"/>
	</g>
	<g>
		<g>
			<path style="fill:#281400;" d="M61.469,382.414c-0.783-5.053-8.102-8.236-8.177-8.27l0.238-0.56
				c0.315,0.137,7.705,3.351,8.541,8.736L61.469,382.414z"/>
		</g>
		<g>
			<path style="fill:#281400;" d="M71.854,394.522l-8.759,1.295l0.324-0.324l-1.393,6.303l-0.019,0.096l-0.086,0.018l-3.505,0.746
				l3.436-1.025l-0.107,0.115l0.882-6.395l0.035-0.256l0.287-0.066l8.626-1.992c0.407-0.092,0.816,0.158,0.907,0.566
				c0.096,0.408-0.159,0.814-0.566,0.906C71.895,394.518,71.872,394.52,71.854,394.522z"/>
		</g>
		<g>
			<path style="fill:#4E2B00;" d="M85.607,412.816c-2.92,4.053-6.834,5.375-7.333,4.652c0.12-0.965-0.083-2.457-0.441-4.275
				c-0.11-0.568-0.238-1.166-0.381-1.789c-0.091-0.404-0.182-0.82-0.282-1.25c-0.152-0.641-0.308-1.313-0.468-1.994
				c-0.232-0.957-0.461-1.943-0.686-2.945c-0.219-0.975-0.426-1.961-0.621-2.941c-0.058-0.293-0.112-0.592-0.169-0.883
				c-0.342-1.861-0.611-3.705-0.707-5.402c-0.116-1.992-0.011-3.797,0.449-5.244l1.035-2.092c1.591-0.166,3.891,0.289,6.109,1.484
				c1.179,0.631,2.339,1.467,3.359,2.527c0.41,0.418,0.789,0.875,1.147,1.371c0.778,1.068,1.411,2.316,1.834,3.738
				c0.059,0.193,0.112,0.385,0.163,0.588c0.067,0.246,0.119,0.506,0.163,0.76c0.034,0.162,0.061,0.324,0.087,0.49
				c0,0.051,0.011,0.1,0.023,0.152c0.023,0.232,0.052,0.461,0.073,0.701c0.022,0.246,0.038,0.5,0.047,0.754
				c0.028,0.633,0.016,1.287-0.04,1.978c-0.011,0.123-0.024,0.25-0.034,0.379c-0.009,0.07-0.014,0.135-0.022,0.205
				c-0.023,0.184-0.046,0.379-0.076,0.574c-0.048,0.332-0.104,0.676-0.174,1.02c-0.019,0.109-0.039,0.223-0.068,0.33
				c-0.104,0.512-0.231,1.027-0.387,1.559c-0.034,0.137-0.074,0.273-0.116,0.414c-0.057,0.182-0.116,0.369-0.175,0.559
				C87.331,410.041,86.517,411.559,85.607,412.816z"/>
		</g>
		<g>
			<path style="fill:#351C00;" d="M67.67,383.301c-3.037,1.514-5.264,11.275,1.958,13.342c6.458,1.85,7.875-2.416,9.163-4.637
				c1.29-2.227,3.89-9.1-5.381-9.584C71.225,382.307,68.97,382.656,67.67,383.301z"/>
		</g>
		<g>
			<path style="fill:#281400;" d="M72.476,395.342l-7.999,3.799l0.212-0.404l0.512,6.434l0.008,0.096l-0.076,0.041l-3.134,1.742
				l2.986-1.986l-0.069,0.139l-1.023-6.369l-0.042-0.258l0.253-0.146l7.669-4.424c0.363-0.213,0.825-0.088,1.035,0.273
				c0.209,0.363,0.085,0.826-0.279,1.037C72.512,395.326,72.491,395.334,72.476,395.342z"/>
		</g>
		<g>
			<g>
				<path style="fill:#FFAA00;" d="M87.916,408.236c0.431-1.328,0.716-2.574,0.892-3.75c-0.573,0.662-1.217,1.303-1.938,1.906
					c-3.387,2.844-7.339,3.977-9.862,3.076c0.314,1.332,0.6,2.59,0.825,3.725c1.729,1.336,4.731,1.141,7.773-0.377
					C86.517,411.559,87.331,410.041,87.916,408.236z"/>
			</g>
		</g>
		<g>
			<g>
				<path d="M74.861,400.831l0.259-0.05L74.861,400.831l0.259-0.05l-0.264,0.028c-0.016-0.081-0.031-0.163-0.043-0.248l0.523-0.072
					c0.01,0.075,0.024,0.148,0.038,0.221L74.861,400.831z"/>
			</g>
			<g>
				<path style="fill:#FFAA00;" d="M86.618,394.035c-0.357-0.492-0.743-0.943-1.15-1.365c-0.749,1.895-2.209,3.889-4.238,5.584
					c-1.939,1.623-4.065,2.688-5.997,3.133c0.052,0.297,0.103,0.592,0.162,0.887c0.195,0.98,0.402,1.967,0.621,2.941
					c0.644,0.096,1.346,0.094,2.092-0.018c2.141-0.301,4.592-1.434,6.808-3.285c1.285-1.078,2.34-2.27,3.134-3.488l0.003-0.004
					c0.144-0.211,0.278-0.428,0.399-0.646C88.029,396.352,87.396,395.103,86.618,394.035z"/>
			</g>
		</g>
		<g style="opacity:0.8;">
			<path style="fill:#E6E6DC;" d="M73.339,386.66c2.677,0.592,5.621,0.262,8.272-0.244c2.312-0.439,4.625-0.959,6.795-1.883
				c2.074-0.887,3.815-2.25,5.643-3.541c1.914-1.352,4.594-3.217,7.08-2.84c0.633,0.098,1.452,0.459,1.901,0.932
				c1.513,1.6,0.375,4.744-0.693,6.297C96.779,393.435,77.865,393.691,73.339,386.66z"/>
		</g>
		<g style="opacity:0.8;">
			<path style="fill:#E6E6DC;" d="M80.074,386.678c0.52-0.078,1.038-0.164,1.538-0.262c1.733-0.326,3.467-0.705,5.14-1.26
				c3.831-2.244,6.919-5.348,7.885-8.875c0.499-1.816,0.537-5.16-1.421-6.17c-0.579-0.299-1.468-0.373-2.099-0.252
				c-2.473,0.461-4.387,3.105-5.752,5.014c-1.298,1.817-2.492,3.682-4.158,5.203c-1.276,1.162-2.692,2.143-4.159,3.045
				C79.044,383.908,79.868,385.248,80.074,386.678z"/>
		</g>
		<g>
			<path style="fill:#281400;" d="M54.606,373.68c0.103,0.66-0.35,1.279-1.009,1.381c-0.662,0.102-1.28-0.351-1.381-1.012
				c-0.105-0.66,0.349-1.279,1.011-1.381C53.884,372.565,54.504,373.02,54.606,373.68z"/>
		</g>
		<g>
			<path style="fill:#412300;" d="M66.072,380.359c-3.65-1.807-8.269,0.768-9.226,5.256l-0.006-0.002
				c-0.057,1.045-0.369,5.182-0.92,6.098c1.365,1.074,4.789,1.723,6.727,1.605l-0.005-0.004
				C69.336,393.082,71.932,383.264,66.072,380.359z"/>
		</g>
		<g>
			<path style="fill:#281400;" d="M78.327,398.615l-7.656,6.424l0.132-0.328l0.225,7.863l0.001,0.072l-0.049,0.037l-2.888,2.053
				l2.736-2.254l-0.051,0.109l-0.778-7.828l-0.018-0.182l0.148-0.147l7.181-6.941c0.303-0.291,0.782-0.281,1.072,0.018
				c0.29,0.303,0.283,0.779-0.019,1.068C78.353,398.592,78.34,398.607,78.327,398.615z"/>
		</g>
		<g>
			<path style="fill:#281400;" d="M79.99,403.44l-6.019,8.853l0.049-0.318l1.845,7.977l0.02,0.082l-0.06,0.049l-3.009,2.621
				l2.832-2.813l-0.038,0.127l-2.368-7.838l-0.049-0.156l0.099-0.162l5.418-9.23c0.211-0.361,0.677-0.484,1.036-0.27
				c0.361,0.211,0.483,0.674,0.271,1.037C80.01,403.41,79.999,403.426,79.99,403.44z"/>
		</g>
		<g>
			<path style="fill:#281400;" d="M61.508,386.908c-0.588,1.186-1.731,1.813-2.554,1.406c-0.824-0.408-1.017-1.697-0.429-2.883
				c0.587-1.186,1.731-1.816,2.556-1.408C61.904,384.43,62.096,385.723,61.508,386.908z"/>
		</g>
		<g>
			<path style="fill:#281400;" d="M62.587,381.652c-0.024,0.053-0.067,0.093-0.122,0.111c-0.054,0.02-0.113,0.017-0.165-0.009
				l-0.241-0.119c-0.059-0.029-0.084-0.1-0.056-0.159c2.151-4.576-1.932-11.277-1.975-11.343l0.517-0.317
				C60.715,370.098,64.796,376.793,62.587,381.652z"/>
		</g>
		<g>
			<path style="fill:#281400;" d="M61.366,370.488c-0.297,0.6-1.021,0.846-1.62,0.549c-0.598-0.297-0.845-1.023-0.548-1.623
				c0.297-0.598,1.024-0.844,1.622-0.547C61.419,369.166,61.663,369.891,61.366,370.488z"/>
		</g>
	</g>
</g>
<g>
	<g>
		<rect x="153.621" y="38.659" style="fill:#A26A00;" width="44.999" height="43.069"/>
	</g>
	<g>
		<rect x="147.621" y="30.798" style="fill:#5A3200;" width="56.999" height="7.86"/>
	</g>
	<g>
		<rect x="153.621" y="81.728" style="fill:#5A3200;" width="2.791" height="14.417"/>
	</g>
	<g>
		<rect x="195.829" y="81.728" style="fill:#5A3200;" width="2.791" height="14.417"/>
	</g>
	<g>
		<rect x="153.621" y="51.076" style="fill:#A26A00;" width="44.999" height="9.848"/>
	</g>
	<g>
		<rect x="153.621" y="38.659" style="fill:#905C00;" width="44.999" height="2.57"/>
	</g>
	<g>
		<rect x="153.621" y="70.041" style="fill:#B47800;" width="44.999" height="9.848"/>
	</g>
	<g>
		<rect x="153.621" y="41.229" style="fill:#B47800;" width="44.999" height="9.848"/>
	</g>
	<g>
		<path style="fill:#5A3200;" d="M179.537,53.77c0,1.887-1.53,3.417-3.417,3.417s-3.416-1.53-3.416-3.417s1.529-3.417,3.416-3.417
			S179.537,51.883,179.537,53.77z"/>
	</g>
	<g>
		<rect x="153.621" y="60.193" style="fill:#905C00;" width="44.999" height="9.848"/>
	</g>
	<g>
		<rect x="158.329" y="73.506" style="fill:#A26A00;" width="35.583" height="2.917"/>
	</g>
</g>
<g>
	<g>
		<path style="fill:#FFCD00;" d="M415.365,388.131c0.966-3.883,2.007-7.727,3.063-11.582c0.877-3.199,1.572-6.109,0.083-9.252
			c-0.443-0.936-1.077-2.375-2.074-2.846c-1.121-0.529-2.613,0.414-3.389,1.209c-1.656,1.699-3.944,2.686-5.807,4.176
			c-3.784,3.023-7.927,7.035-9.959,11.508c-0.701,1.541-0.543,3.742,1.254,4.371c0.981,0.342,2.123,0.141,3.14,0.199
			c2.876,0.164,4.677,1.383,6.329,3.719c2.014,2.846,2.212,5.904,1.587,9.285c-0.478,2.584-1.356,5.685-0.607,8.297
			c0.587,2.047,3.271,3.814,4.991,2.041c1.543-1.59,1.371-3.619,0.92-5.555C413.707,398.617,414.089,393.258,415.365,388.131z"/>
	</g>
	<g style="opacity:0.5;">
		<path style="fill:#FFFFFF;" d="M412.402,400.645c0.243-1.279,0.31-2.76,0.857-3.949c0.12,2.146,0.318,4.25,0.435,5.234
			c0.348,2.906,1.311,4.594,0.36,5.914C413.153,409.098,411.019,407.935,412.402,400.645z"/>
	</g>
	<g>
		<g>
			<g>
				<path style="fill:#A26A00;" d="M358.484,421.711l-1.263-1.262c0,0,35.836-34.978,37.139-37.625
					c1.303-2.645,1.408-11.978,8.988-19.559c3.436-3.434,9.555-4.578,13.858-0.275l-0.079-0.08
					c4.304,4.305,3.158,10.424-0.275,13.859c-7.581,7.58-16.914,7.686-19.559,8.988c-2.645,1.303-37.624,37.139-37.624,37.139
					l-1.264-1.264L358.484,421.711z"/>
			</g>
			<g>
				<path style="fill:#865200;" d="M414.471,376.859c4.854-4.854,4.908-9.881,1.789-13l0,0l0,0l0,0l0,0
					c-3.119-3.121-8.147-3.065-13.001,1.789c-4.855,4.854-7.353,13.941-5.043,16.254l0,0l0,0c0.001,0,0.001,0,0.001,0l0,0
					C400.528,384.213,409.616,381.715,414.471,376.859z"/>
			</g>
			<g>
				<path style="fill:#905C00;" d="M414.471,376.859c4.854-4.854,4.908-9.881,1.789-13l-18.043,18.043
					C400.528,384.213,409.616,381.715,414.471,376.859z"/>
			</g>
		</g>
		<g>
			<path style="fill:#B47800;" d="M361.165,424.133c-1.428,1.426-3.742,1.426-5.168,0c-1.428-1.428-1.428-3.742,0-5.168
				c1.426-1.428,3.74-1.428,5.168,0C362.591,420.391,362.591,422.705,361.165,424.133z"/>
		</g>
	</g>
</g>
<g>
	<g>
		<path style="fill:#FFCD00;" d="M59.499,279.268c0.288-1.486,0.945-2.818,1.91-3.986c1.001-1.211,2.03-2.375,2.273-4.014
			c0.239-1.613,0.621-3.52-0.506-4.885c-1.395-1.691-3.512-3.172-5.229-4.516c-2.646-2.074-5.771-4.563-9.318-4.592
			c-4.559-0.037-4.207,5.479-3.254,8.49c0.725,2.291,2.357,4.111,3.624,6.107c1.313,2.07,2.656,4.145,3.61,6.414
			c0.468,1.111,0.857,2.273,1.026,3.471c0.149,1.053-0.051,2.205,0.436,3.191c0.69,1.398,2.726,1.459,3.859,0.492
			c1.875-1.598,1.162-3.977,1.552-6.09C59.487,279.322,59.493,279.295,59.499,279.268z"/>
	</g>
	<g>
		<g>
			<rect x="38.959" y="281.529" style="fill:#E6E6DC;" width="24.021" height="5.106"/>
		</g>
		<g>
			<rect x="37.958" y="283.316" style="fill:#E6E6DC;" width="26.023" height="1.531"/>
		</g>
		<g>
			<path style="fill:#FFAA00;" d="M63.865,324.412c-0.614,1.336-1.002,2.119-1.002,2.119H39.074c0,0-0.389-0.783-1.003-2.119
				c-2.593-5.588-9.199-20.764-8.062-27.85c1.414-8.768,8.952-9.926,8.952-9.926h24.021c0,0,7.532,1.158,8.945,9.926
				C73.064,303.648,66.459,318.824,63.865,324.412z"/>
		</g>
		<g>
			<path style="fill:#FFBE00;" d="M62.982,286.637H50.967v39.895h11.896c0,0,0.388-0.783,1.002-2.119
				c2.594-5.588,9.2-20.764,8.062-27.85C70.514,287.795,62.982,286.637,62.982,286.637z"/>
		</g>
		<g>
			<path style="fill:#E6E6DC;" d="M63.865,324.412c-0.614,1.336-1.002,2.119-1.002,2.119H39.074c0,0-0.389-0.783-1.003-2.119H63.865
				z"/>
		</g>
		<g>
			<path style="fill:#FFFFFF;" d="M64.349,289.75c6.001,10.129,3.993,16.998-3.488,29.365c5.803-12.453,8.123-18.82-0.65-29.324
				L64.349,289.75z"/>
		</g>
		<g>
			<path style="fill:#E6E6DC;" d="M62.922,287.343c0.681,0.123,7.04,1.473,8.307,9.332c1.128,7.027-5.842,22.779-8.006,27.442
				c-0.352,0.766-0.63,1.352-0.802,1.708H39.516c-0.172-0.356-0.451-0.943-0.804-1.71c-2.163-4.662-9.132-20.417-8.005-27.44
				c1.269-7.865,7.641-9.211,8.314-9.332H62.922L62.922,287.343z M62.982,286.637H38.961c0,0-7.538,1.158-8.952,9.926
				c-1.137,7.086,5.469,22.262,8.062,27.85c0.614,1.336,1.003,2.119,1.003,2.119h23.789c0,0,0.388-0.783,1.002-2.119
				c2.594-5.588,9.2-20.764,8.062-27.85C70.514,287.795,62.982,286.637,62.982,286.637L62.982,286.637z"/>
		</g>
	</g>
	<g>
		<g>
			<g>
				<path style="fill:#A26A00;" d="M99.933,308.242l-1.166,1.166c0,0-32.289-33.082-34.732-34.285
					c-2.441-1.201-11.057-1.301-18.054-8.297c-3.172-3.172-4.229-8.82-0.256-12.793l-0.072,0.072
					c3.973-3.973,9.622-2.916,12.792,0.254c6.999,7,7.096,15.615,8.299,18.057c1.201,2.441,34.283,34.732,34.283,34.732
					l-1.166,1.166L99.933,308.242z"/>
			</g>
			<g>
				<path style="fill:#865200;" d="M58.528,256.559c-4.48-4.48-9.122-4.531-12-1.652l0,0l0,0l0,0l0,0
					c-2.881,2.881-2.83,7.523,1.65,12.004c4.481,4.48,12.87,6.787,15.005,4.654l0,0l0,0c0-0.002,0-0.002,0-0.002l0,0
					C65.316,269.43,63.011,261.041,58.528,256.559z"/>
			</g>
			<g>
				<path style="fill:#905C00;" d="M58.528,256.559c-4.48-4.48-9.122-4.531-12-1.652l16.655,16.656
					C65.316,269.43,63.011,261.041,58.528,256.559z"/>
			</g>
		</g>
		<g>
			<path style="fill:#B47800;" d="M102.167,305.768c1.316,1.318,1.316,3.453,0,4.771c-1.316,1.316-3.453,1.316-4.77,0
				c-1.318-1.318-1.318-3.453,0-4.771C98.714,304.451,100.851,304.451,102.167,305.768z"/>
		</g>
	</g>
</g>
<g>
	<g>
		<g>
			<g>
				<path style="fill:#A26A00;" d="M260.197,90.251l-1.166-1.166c0,0,33.08-32.288,34.281-34.731
					c1.203-2.441,1.301-11.057,8.299-18.054c3.17-3.171,8.818-4.228,12.791-0.255l-0.072-0.073
					c3.973,3.973,2.916,9.621-0.254,12.792c-6.998,6.997-15.613,7.096-18.055,8.298c-2.441,1.202-34.73,34.282-34.73,34.282
					l-1.166-1.166L260.197,90.251z"/>
			</g>
			<g>
				<path style="fill:#865200;" d="M311.877,48.848c4.48-4.48,4.531-9.122,1.652-12.001l0,0l0,0l0,0l0,0
					c-2.881-2.88-7.522-2.829-12.002,1.651c-4.482,4.48-6.787,12.869-4.654,15.004l0,0l0,0l0,0l0,0
					C299.008,55.635,307.396,53.33,311.877,48.848z"/>
			</g>
			<g>
				<path style="fill:#905C00;" d="M311.877,48.848c4.48-4.48,4.531-9.122,1.652-12.001l-16.656,16.655
					C299.008,55.635,307.396,53.33,311.877,48.848z"/>
			</g>
		</g>
		<g>
			<path style="fill:#B47800;" d="M262.67,92.484c-1.316,1.316-3.453,1.316-4.77,0c-1.316-1.317-1.316-3.453,0-4.77
				c1.316-1.317,3.453-1.317,4.77,0C263.988,89.032,263.988,91.167,262.67,92.484z"/>
		</g>
	</g>
	<g>
		<g>
			<g>
				<path style="fill:#A26A00;" d="M305.982,90.178l-1.166,1.166c0,0-32.287-33.08-34.73-34.281
					c-2.441-1.203-11.057-1.301-18.053-8.299c-3.172-3.17-4.229-8.818-0.256-12.791l-0.072,0.072
					c3.973-3.973,9.621-2.916,12.791,0.255c6.998,6.997,7.096,15.612,8.299,18.055c1.201,2.441,34.281,34.73,34.281,34.73
					l-1.166,1.166L305.982,90.178z"/>
			</g>
			<g>
				<path style="fill:#865200;" d="M264.58,38.499c-4.48-4.48-9.121-4.531-12-1.651l0,0l0,0l0,0l0,0
					c-2.881,2.88-2.83,7.521,1.65,12.001c4.48,4.483,12.869,6.787,15.004,4.654l0,0l0,0l0,0l0,0
					C271.367,51.369,269.063,42.98,264.58,38.499z"/>
			</g>
			<g>
				<path style="fill:#905C00;" d="M264.58,38.499c-4.48-4.48-9.121-4.531-12-1.651l16.654,16.655
					C271.367,51.369,269.063,42.98,264.58,38.499z"/>
			</g>
		</g>
		<g>
			<path style="fill:#B47800;" d="M308.217,87.706c1.316,1.316,1.316,3.453,0,4.769c-1.316,1.317-3.453,1.317-4.77,0
				c-1.318-1.316-1.318-3.453,0-4.769C304.764,86.387,306.9,86.387,308.217,87.706z"/>
		</g>
	</g>
</g>
</svg>
